<?xml version="1.0" encoding="utf-8"?>
<!-- Generator: Adobe Illustrator 15.0.0, SVG Export Plug-In . SVG Version: 6.00 Build 0)  -->
<!DOCTYPE svg PUBLIC "-//W3C//DTD SVG 1.1//EN" "http://www.w3.org/Graphics/SVG/1.1/DTD/svg11.dtd">
<svg version="1.1" id="Layer_1" xmlns="http://www.w3.org/2000/svg" xmlns:xlink="http://www.w3.org/1999/xlink" x="0px" y="0px"
	 width="400px" height="51.333px" viewBox="0 0 400 51.333" enable-background="new 0 0 400 51.333" xml:space="preserve">
<g id="magnifying_glass">
	<g id="handle">
		<polygon points="299.812,20.979 296.254,17.446 297.072,16.761 300.584,20.229 		"/>
	</g>
	<polygon fill="#FFFFFF" points="296.775,17.199 296.557,17.386 299.822,20.621 300.01,20.417 	"/>
</g>
<g id="dna">
	<g>
		<title>Layer 1</title>
		<g id="svg_1" transform="translate(1428 153)">
			
				<linearGradient id="use2756_2_" gradientUnits="userSpaceOnUse" x1="-5544.876" y1="-305.6533" x2="-5541.0898" y2="-305.6533" gradientTransform="matrix(1 0 0 -1 4296 -417.667)">
				<stop  offset="0" style="stop-color:#FFFFFF"/>
				<stop  offset="0.4615" style="stop-color:#000000"/>
			</linearGradient>
			
				<path id="use2756" marker-mid="none" marker-end="none" marker-start="none" opacity="0.8" fill="url(#use2756_2_)" stroke="#000000" stroke-width="0.0417" stroke-linecap="round" stroke-linejoin="round" enable-background="new    " d="
				M-1248.667-113.544c-0.136,0.152-0.209,0.305-0.209,0.459c0,0.256,0.204,0.512,0.556,0.769c0.35,0.255,0.842,0.51,1.336,0.767
				c0.498,0.254,0.988,0.508,1.338,0.764c0.139,0.103,0.256,0.201,0.345,0.304c0.136-0.154,0.211-0.308,0.211-0.46
				c0-0.256-0.205-0.514-0.556-0.77s-0.842-0.511-1.338-0.766c-0.494-0.255-0.986-0.508-1.336-0.764
				C-1248.461-113.343-1248.578-113.445-1248.667-113.544z"/>
			
				<linearGradient id="use2758_2_" gradientUnits="userSpaceOnUse" x1="-5544.876" y1="-299.5312" x2="-5541.0898" y2="-299.5312" gradientTransform="matrix(1 0 0 -1 4296 -417.667)">
				<stop  offset="0" style="stop-color:#FFFFFF"/>
				<stop  offset="0.4615" style="stop-color:#000000"/>
			</linearGradient>
			
				<path id="use2758" marker-mid="none" marker-end="none" marker-start="none" opacity="0.8" fill="url(#use2758_2_)" stroke="#000000" stroke-width="0.0417" stroke-linecap="round" stroke-linejoin="round" enable-background="new    " d="
				M-1248.667-119.667c-0.136,0.154-0.209,0.309-0.209,0.461c0,0.256,0.204,0.514,0.556,0.769c0.35,0.256,0.842,0.51,1.336,0.765
				c0.498,0.256,0.988,0.512,1.338,0.768c0.139,0.101,0.256,0.201,0.345,0.302c0.136-0.153,0.211-0.308,0.211-0.461
				c0-0.254-0.205-0.511-0.556-0.767s-0.842-0.51-1.338-0.767c-0.494-0.255-0.986-0.51-1.336-0.764
				C-1248.461-119.462-1248.578-119.564-1248.667-119.667z"/>
			
				<linearGradient id="use2760_2_" gradientUnits="userSpaceOnUse" x1="-5544.876" y1="-293.3433" x2="-5541.0898" y2="-293.3433" gradientTransform="matrix(1 0 0 -1 4296 -417.667)">
				<stop  offset="0" style="stop-color:#FFFFFF"/>
				<stop  offset="0.4615" style="stop-color:#000000"/>
			</linearGradient>
			
				<path id="use2760" marker-mid="none" marker-end="none" marker-start="none" opacity="0.8" fill="url(#use2760_2_)" stroke="#000000" stroke-width="0.0417" stroke-linecap="round" stroke-linejoin="round" enable-background="new    " d="
				M-1248.667-125.855c-0.136,0.152-0.209,0.309-0.209,0.461c0,0.255,0.204,0.514,0.556,0.77c0.35,0.254,0.842,0.508,1.336,0.765
				c0.498,0.255,0.988,0.509,1.338,0.765c0.139,0.102,0.256,0.2,0.345,0.303c0.136-0.153,0.211-0.308,0.211-0.461
				c0-0.254-0.205-0.512-0.556-0.767s-0.842-0.511-1.338-0.765c-0.494-0.256-0.986-0.512-1.336-0.766
				C-1248.461-125.654-1248.578-125.751-1248.667-125.855z"/>
			
				<linearGradient id="use2762_2_" gradientUnits="userSpaceOnUse" x1="-5544.876" y1="-287.2163" x2="-5541.0898" y2="-287.2163" gradientTransform="matrix(1 0 0 -1 4296 -417.667)">
				<stop  offset="0" style="stop-color:#FFFFFF"/>
				<stop  offset="0.4615" style="stop-color:#000000"/>
			</linearGradient>
			
				<path id="use2762" marker-mid="none" marker-end="none" marker-start="none" opacity="0.8" fill="url(#use2762_2_)" stroke="#000000" stroke-width="0.0417" stroke-linecap="round" stroke-linejoin="round" enable-background="new    " d="
				M-1248.667-131.983c-0.136,0.154-0.209,0.307-0.209,0.461c0,0.255,0.204,0.512,0.556,0.768c0.35,0.256,0.842,0.508,1.336,0.764
				c0.498,0.256,0.988,0.512,1.338,0.768c0.139,0.102,0.256,0.201,0.345,0.303c0.136-0.154,0.211-0.308,0.211-0.461
				c0-0.256-0.205-0.513-0.556-0.768c-0.35-0.255-0.842-0.51-1.338-0.766c-0.494-0.254-0.986-0.51-1.336-0.766
				C-1248.461-131.78-1248.578-131.881-1248.667-131.983z"/>
			
				<linearGradient id="use2764_2_" gradientUnits="userSpaceOnUse" x1="-5544.876" y1="-281.0356" x2="-5541.0898" y2="-281.0356" gradientTransform="matrix(1 0 0 -1 4296 -417.667)">
				<stop  offset="0" style="stop-color:#FFFFFF"/>
				<stop  offset="0.4615" style="stop-color:#000000"/>
			</linearGradient>
			
				<path id="use2764" marker-mid="none" marker-end="none" marker-start="none" opacity="0.8" fill="url(#use2764_2_)" stroke="#000000" stroke-width="0.0417" stroke-linecap="round" stroke-linejoin="round" enable-background="new    " d="
				M-1248.667-138.163c-0.136,0.154-0.209,0.308-0.209,0.461c0,0.256,0.204,0.513,0.556,0.768c0.35,0.256,0.842,0.51,1.336,0.766
				c0.498,0.254,0.988,0.51,1.338,0.766c0.139,0.102,0.256,0.199,0.345,0.302c0.136-0.153,0.211-0.308,0.211-0.46
				c0-0.256-0.205-0.512-0.556-0.768c-0.351-0.254-0.842-0.508-1.338-0.764c-0.494-0.256-0.986-0.511-1.336-0.767
				C-1248.461-137.959-1248.578-138.06-1248.667-138.163z"/>
			
				<linearGradient id="use2776_2_" gradientUnits="userSpaceOnUse" x1="-5544.876" y1="-278.8325" x2="-5541.0898" y2="-278.8325" gradientTransform="matrix(1 0 0 -1 4296 -417.667)">
				<stop  offset="0" style="stop-color:#FFFFFF"/>
				<stop  offset="0.4615" style="stop-color:#000000"/>
			</linearGradient>
			
				<path id="use2776" marker-mid="none" marker-end="none" marker-start="none" opacity="0.8" fill="url(#use2776_2_)" stroke="#000000" stroke-width="0.0417" stroke-linecap="round" stroke-linejoin="round" enable-background="new    " d="
				M-1248.667-140.366c-0.136,0.154-0.209,0.307-0.209,0.461c0,0.255,0.204,0.512,0.556,0.767c0.35,0.255,0.842,0.511,1.336,0.767
				c0.498,0.254,0.988,0.51,1.338,0.766c0.139,0.102,0.256,0.199,0.345,0.302c0.136-0.153,0.211-0.307,0.211-0.46
				c0-0.255-0.205-0.512-0.556-0.766c-0.351-0.256-0.842-0.512-1.338-0.766c-0.494-0.256-0.986-0.511-1.336-0.766
				C-1248.461-140.165-1248.578-140.264-1248.667-140.366z"/>
			
				<linearGradient id="use2788_2_" gradientUnits="userSpaceOnUse" x1="-5544.876" y1="-281.8989" x2="-5541.0908" y2="-281.8989" gradientTransform="matrix(1 0 0 -1 4296 -417.667)">
				<stop  offset="0" style="stop-color:#FFFFFF"/>
				<stop  offset="0.4615" style="stop-color:#000000"/>
			</linearGradient>
			
				<path id="use2788" marker-mid="none" marker-end="none" marker-start="none" opacity="0.8" fill="url(#use2788_2_)" stroke="#000000" stroke-width="0.0417" stroke-linecap="round" stroke-linejoin="round" enable-background="new    " d="
				M-1245.301-137.306c-0.093,0.106-0.205,0.204-0.345,0.306c-0.351,0.254-0.842,0.51-1.338,0.766
				c-0.494,0.255-0.985,0.512-1.337,0.768c-0.351,0.256-0.554,0.51-0.555,0.766c0,0.078,0.001,0.771,0.001,0.926
				c0-0.153,0.138-0.376,0.209-0.465c0.07-0.084,0.205-0.2,0.344-0.301c0.352-0.256,0.842-0.513,1.337-0.769
				c0.497-0.254,0.988-0.51,1.339-0.765c0.35-0.256,0.555-0.512,0.555-0.766c0-0.08,0-0.693,0-0.922
				C-1245.09-137.536-1245.209-137.411-1245.301-137.306z"/>
			
				<linearGradient id="use2790_2_" gradientUnits="userSpaceOnUse" x1="-5544.876" y1="-285.0112" x2="-5541.0898" y2="-285.0112" gradientTransform="matrix(1 0 0 -1 4296 -417.667)">
				<stop  offset="0" style="stop-color:#FFFFFF"/>
				<stop  offset="0.4615" style="stop-color:#000000"/>
			</linearGradient>
			
				<path id="use2790" marker-mid="none" marker-end="none" marker-start="none" opacity="0.8" fill="url(#use2790_2_)" stroke="#000000" stroke-width="0.0417" stroke-linecap="round" stroke-linejoin="round" enable-background="new    " d="
				M-1248.667-134.187c-0.136,0.153-0.209,0.306-0.209,0.459c0,0.255,0.204,0.513,0.556,0.769c0.35,0.254,0.842,0.51,1.336,0.765
				c0.498,0.256,0.988,0.51,1.338,0.766c0.139,0.103,0.256,0.202,0.345,0.304c0.136-0.154,0.211-0.307,0.211-0.461
				c0-0.254-0.205-0.513-0.556-0.767c-0.351-0.255-0.842-0.511-1.338-0.767c-0.494-0.256-0.986-0.51-1.336-0.764
				C-1248.461-133.984-1248.578-134.086-1248.667-134.187z"/>
			
				<linearGradient id="use2802_2_" gradientUnits="userSpaceOnUse" x1="-5544.876" y1="-288.082" x2="-5541.0908" y2="-288.082" gradientTransform="matrix(1 0 0 -1 4296 -417.667)">
				<stop  offset="0" style="stop-color:#FFFFFF"/>
				<stop  offset="0.4615" style="stop-color:#000000"/>
			</linearGradient>
			
				<path id="use2802" marker-mid="none" marker-end="none" marker-start="none" opacity="0.8" fill="url(#use2802_2_)" stroke="#000000" stroke-width="0.0417" stroke-linecap="round" stroke-linejoin="round" enable-background="new    " d="
				M-1245.301-131.122c-0.093,0.105-0.205,0.203-0.345,0.305c-0.351,0.255-0.842,0.51-1.338,0.766
				c-0.494,0.254-0.985,0.512-1.337,0.768c-0.351,0.255-0.554,0.51-0.555,0.764c0,0.078,0.001,0.771,0.001,0.928
				c0-0.154,0.138-0.377,0.209-0.464c0.07-0.087,0.205-0.202,0.344-0.302c0.352-0.256,0.842-0.512,1.337-0.768
				c0.497-0.256,0.988-0.511,1.339-0.766c0.351-0.255,0.555-0.51,0.555-0.766c0-0.079,0-0.693,0-0.922
				C-1245.09-131.349-1245.209-131.228-1245.301-131.122z"/>
			
				<linearGradient id="use2804_2_" gradientUnits="userSpaceOnUse" x1="-5544.876" y1="-291.1382" x2="-5541.0898" y2="-291.1382" gradientTransform="matrix(1 0 0 -1 4296 -417.667)">
				<stop  offset="0" style="stop-color:#FFFFFF"/>
				<stop  offset="0.4615" style="stop-color:#000000"/>
			</linearGradient>
			
				<path id="use2804" marker-mid="none" marker-end="none" marker-start="none" opacity="0.8" fill="url(#use2804_2_)" stroke="#000000" stroke-width="0.0417" stroke-linecap="round" stroke-linejoin="round" enable-background="new    " d="
				M-1248.667-128.06c-0.136,0.153-0.209,0.308-0.209,0.461c0,0.255,0.204,0.513,0.556,0.768c0.35,0.256,0.842,0.51,1.336,0.767
				c0.498,0.255,0.988,0.509,1.338,0.765c0.139,0.102,0.256,0.202,0.345,0.303c0.136-0.152,0.211-0.306,0.211-0.459
				c0-0.256-0.205-0.512-0.556-0.768c-0.351-0.255-0.842-0.511-1.338-0.766c-0.494-0.256-0.986-0.51-1.336-0.766
				C-1248.461-127.857-1248.578-127.958-1248.667-128.06L-1248.667-128.06z"/>
			
				<linearGradient id="use2816_2_" gradientUnits="userSpaceOnUse" x1="-5544.876" y1="-294.2144" x2="-5541.0908" y2="-294.2144" gradientTransform="matrix(1 0 0 -1 4296 -417.667)">
				<stop  offset="0" style="stop-color:#FFFFFF"/>
				<stop  offset="0.4615" style="stop-color:#000000"/>
			</linearGradient>
			
				<path id="use2816" marker-mid="none" marker-end="none" marker-start="none" opacity="0.8" fill="url(#use2816_2_)" stroke="#000000" stroke-width="0.0417" stroke-linecap="round" stroke-linejoin="round" enable-background="new    " d="
				M-1245.301-124.992c-0.093,0.107-0.205,0.205-0.345,0.307c-0.351,0.256-0.842,0.512-1.338,0.768
				c-0.494,0.254-0.985,0.512-1.337,0.767c-0.351,0.255-0.554,0.51-0.555,0.767c0,0.076,0.001,0.77,0.001,0.926
				c0-0.152,0.138-0.377,0.209-0.463c0.07-0.086,0.205-0.203,0.344-0.305c0.352-0.255,0.842-0.511,1.337-0.768
				c0.497-0.256,0.988-0.51,1.339-0.764c0.35-0.257,0.555-0.513,0.555-0.768c0-0.08,0-0.691,0-0.922
				C-1245.09-125.216-1245.209-125.096-1245.301-124.992z"/>
			
				<linearGradient id="use2818_2_" gradientUnits="userSpaceOnUse" x1="-5544.876" y1="-297.3262" x2="-5541.0898" y2="-297.3262" gradientTransform="matrix(1 0 0 -1 4296 -417.667)">
				<stop  offset="0" style="stop-color:#FFFFFF"/>
				<stop  offset="0.4615" style="stop-color:#000000"/>
			</linearGradient>
			
				<path id="use2818" marker-mid="none" marker-end="none" marker-start="none" opacity="0.8" fill="url(#use2818_2_)" stroke="#000000" stroke-width="0.0417" stroke-linecap="round" stroke-linejoin="round" enable-background="new    " d="
				M-1248.667-121.873c-0.136,0.154-0.209,0.309-0.209,0.461c0,0.257,0.204,0.513,0.556,0.769c0.35,0.256,0.842,0.513,1.336,0.767
				c0.498,0.254,0.988,0.51,1.338,0.766c0.139,0.102,0.256,0.201,0.345,0.302c0.136-0.153,0.211-0.306,0.211-0.46
				c0-0.255-0.205-0.512-0.556-0.768c-0.35-0.256-0.842-0.51-1.338-0.767c-0.494-0.256-0.986-0.51-1.336-0.765
				C-1248.461-121.667-1248.578-121.77-1248.667-121.873z"/>
			
				<linearGradient id="use2832_2_" gradientUnits="userSpaceOnUse" x1="-5544.876" y1="-303.4492" x2="-5541.0898" y2="-303.4492" gradientTransform="matrix(1 0 0 -1 4296 -417.667)">
				<stop  offset="0" style="stop-color:#FFFFFF"/>
				<stop  offset="0.4615" style="stop-color:#000000"/>
			</linearGradient>
			
				<path id="use2832" marker-mid="none" marker-end="none" marker-start="none" opacity="0.8" fill="url(#use2832_2_)" stroke="#000000" stroke-width="0.0417" stroke-linecap="round" stroke-linejoin="round" enable-background="new    " d="
				M-1248.667-115.75c-0.136,0.153-0.209,0.308-0.209,0.461c0,0.254,0.204,0.513,0.556,0.768c0.35,0.256,0.842,0.512,1.336,0.766
				c0.498,0.254,0.988,0.51,1.338,0.766c0.139,0.103,0.256,0.201,0.345,0.304c0.136-0.153,0.211-0.308,0.211-0.46
				c0-0.256-0.205-0.514-0.556-0.77c-0.351-0.254-0.842-0.51-1.338-0.766c-0.494-0.256-0.986-0.509-1.336-0.766
				C-1248.461-115.548-1248.578-115.649-1248.667-115.75z"/>
			
				<linearGradient id="use2844_2_" gradientUnits="userSpaceOnUse" x1="-5544.876" y1="-306.3276" x2="-5541.0908" y2="-306.3276" gradientTransform="matrix(1 0 0 -1 4296 -417.667)">
				<stop  offset="0" style="stop-color:#FFFFFF"/>
				<stop  offset="0.4615" style="stop-color:#000000"/>
			</linearGradient>
			
				<path id="use2844" marker-mid="none" marker-end="none" marker-start="none" opacity="0.8" fill="url(#use2844_2_)" stroke="#000000" stroke-width="0.0417" stroke-linecap="round" stroke-linejoin="round" enable-background="new    " d="
				M-1245.301-112.875c-0.093,0.104-0.205,0.203-0.345,0.303c-0.351,0.256-0.842,0.511-1.338,0.767
				c-0.494,0.257-0.985,0.513-1.337,0.769c-0.351,0.254-0.554,0.51-0.555,0.765c0,0.076,0.001,0.771,0.001,0.927
				c0-0.152,0.138-0.376,0.209-0.465c0.07-0.085,0.205-0.201,0.344-0.305c0.352-0.254,0.842-0.512,1.337-0.766
				c0.497-0.257,0.988-0.51,1.339-0.765c0.35-0.255,0.555-0.511,0.555-0.767c0-0.078,0-0.692,0-0.922
				C-1245.09-113.104-1245.209-112.983-1245.301-112.875z"/>
			
				<linearGradient id="path2866_2_" gradientUnits="userSpaceOnUse" x1="-5544.8633" y1="-277.918" x2="-5541.0801" y2="-277.918" gradientTransform="matrix(1 0 0 -1 4296 -417.667)">
				<stop  offset="0" style="stop-color:#FFFFFF"/>
				<stop  offset="0.4615" style="stop-color:#000000"/>
			</linearGradient>
			
				<path id="path2866" marker-mid="none" marker-end="none" marker-start="none" opacity="0.8" fill="url(#path2866_2_)" stroke="#000000" stroke-width="0.0417" stroke-linecap="round" stroke-linejoin="round" enable-background="new    " d="
				M-1245.29-141.284c-0.091,0.104-0.206,0.203-0.344,0.304c-0.351,0.255-0.843,0.511-1.337,0.767
				c-0.496,0.254-0.988,0.51-1.338,0.766c-0.351,0.256-0.554,0.511-0.554,0.767c0,0.077,0,0.771,0,0.925
				c0-0.152,0.138-0.375,0.21-0.463c0.07-0.086,0.204-0.201,0.342-0.302c0.352-0.256,0.843-0.513,1.338-0.769
				c0.496-0.254,0.988-0.51,1.338-0.766c0.35-0.255,0.555-0.509,0.555-0.765c0-0.079,0-0.694,0-0.923
				C-1245.078-141.512-1245.198-141.392-1245.29-141.284L-1245.29-141.284z"/>
			
				<linearGradient id="use2876_2_" gradientUnits="userSpaceOnUse" x1="-5544.876" y1="-284.1025" x2="-5541.0908" y2="-284.1025" gradientTransform="matrix(1 0 0 -1 4296 -417.667)">
				<stop  offset="0" style="stop-color:#FFFFFF"/>
				<stop  offset="0.4615" style="stop-color:#000000"/>
			</linearGradient>
			
				<path id="use2876" marker-mid="none" marker-end="none" marker-start="none" opacity="0.8" fill="url(#use2876_2_)" stroke="#000000" stroke-width="0.0417" stroke-linecap="round" stroke-linejoin="round" enable-background="new    " d="
				M-1245.301-135.101c-0.093,0.106-0.205,0.204-0.345,0.306c-0.351,0.256-0.842,0.51-1.338,0.764
				c-0.494,0.256-0.985,0.514-1.337,0.769c-0.351,0.255-0.554,0.511-0.555,0.765c0,0.078,0.001,0.771,0.001,0.926
				c0-0.152,0.138-0.375,0.209-0.463c0.07-0.086,0.205-0.201,0.344-0.303c0.352-0.254,0.842-0.512,1.337-0.767
				c0.497-0.255,0.988-0.511,1.339-0.767c0.35-0.256,0.555-0.51,0.555-0.764c0-0.08,0-0.695,0-0.923
				C-1245.09-135.331-1245.209-135.208-1245.301-135.101z"/>
			
				<linearGradient id="use2886_2_" gradientUnits="userSpaceOnUse" x1="-5544.876" y1="-290.2866" x2="-5541.0908" y2="-290.2866" gradientTransform="matrix(1 0 0 -1 4296 -417.667)">
				<stop  offset="0" style="stop-color:#FFFFFF"/>
				<stop  offset="0.4615" style="stop-color:#000000"/>
			</linearGradient>
			
				<path id="use2886" marker-mid="none" marker-end="none" marker-start="none" opacity="0.8" fill="url(#use2886_2_)" stroke="#000000" stroke-width="0.0417" stroke-linecap="round" stroke-linejoin="round" enable-background="new    " d="
				M-1245.301-128.917c-0.093,0.104-0.205,0.203-0.345,0.305c-0.351,0.255-0.842,0.51-1.338,0.765
				c-0.494,0.257-0.985,0.513-1.337,0.769c-0.351,0.256-0.554,0.511-0.555,0.766c0,0.078,0.001,0.771,0.001,0.926
				c0-0.154,0.138-0.376,0.209-0.463c0.07-0.087,0.205-0.201,0.344-0.303c0.352-0.254,0.842-0.512,1.337-0.768
				c0.497-0.254,0.988-0.51,1.339-0.766c0.351-0.255,0.555-0.509,0.555-0.766c0-0.078,0-0.693,0-0.922
				C-1245.09-129.145-1245.209-129.024-1245.301-128.917L-1245.301-128.917z"/>
			
				<linearGradient id="use2896_2_" gradientUnits="userSpaceOnUse" x1="-5544.876" y1="-296.4185" x2="-5541.0908" y2="-296.4185" gradientTransform="matrix(1 0 0 -1 4296 -417.667)">
				<stop  offset="0" style="stop-color:#FFFFFF"/>
				<stop  offset="0.4615" style="stop-color:#000000"/>
			</linearGradient>
			
				<path id="use2896" marker-mid="none" marker-end="none" marker-start="none" opacity="0.8" fill="url(#use2896_2_)" stroke="#000000" stroke-width="0.0417" stroke-linecap="round" stroke-linejoin="round" enable-background="new    " d="
				M-1245.301-122.787c-0.093,0.105-0.205,0.203-0.345,0.306c-0.351,0.255-0.842,0.51-1.338,0.767
				c-0.494,0.254-0.985,0.512-1.337,0.768c-0.351,0.256-0.554,0.511-0.555,0.766c0,0.077,0.001,0.77,0.001,0.926
				c0-0.154,0.138-0.375,0.209-0.463c0.07-0.086,0.205-0.201,0.344-0.303c0.352-0.254,0.842-0.512,1.337-0.768
				c0.497-0.254,0.988-0.51,1.339-0.766c0.351-0.255,0.555-0.511,0.555-0.765c0-0.08,0-0.695,0-0.923
				C-1245.09-123.014-1245.209-122.892-1245.301-122.787L-1245.301-122.787z"/>
			
				<linearGradient id="use2906_2_" gradientUnits="userSpaceOnUse" x1="-5544.876" y1="-302.5977" x2="-5541.0908" y2="-302.5977" gradientTransform="matrix(1 0 0 -1 4296 -417.667)">
				<stop  offset="0" style="stop-color:#FFFFFF"/>
				<stop  offset="0.4615" style="stop-color:#000000"/>
			</linearGradient>
			
				<path id="use2906" marker-mid="none" marker-end="none" marker-start="none" opacity="0.8" fill="url(#use2906_2_)" stroke="#000000" stroke-width="0.0417" stroke-linecap="round" stroke-linejoin="round" enable-background="new    " d="
				M-1245.301-116.605c-0.093,0.105-0.205,0.203-0.345,0.307c-0.351,0.254-0.842,0.51-1.338,0.766
				c-0.494,0.255-0.985,0.512-1.337,0.766c-0.351,0.255-0.554,0.51-0.555,0.766c0,0.078,0.001,0.771,0.001,0.926
				c0-0.153,0.138-0.375,0.209-0.463c0.07-0.086,0.205-0.203,0.344-0.303c0.352-0.255,0.842-0.512,1.337-0.768
				c0.497-0.256,0.988-0.51,1.339-0.766s0.555-0.51,0.555-0.767c0-0.079,0-0.692,0-0.922
				C-1245.09-116.833-1245.209-116.71-1245.301-116.605z"/>
			
				<linearGradient id="use2830_2_" gradientUnits="userSpaceOnUse" x1="-5544.9092" y1="-300.4263" x2="-5541.124" y2="-300.4263" gradientTransform="matrix(1 0 0 -1 4296 -417.667)">
				<stop  offset="0" style="stop-color:#FFFFFF"/>
				<stop  offset="0.4615" style="stop-color:#000000"/>
			</linearGradient>
			
				<path id="use2830" marker-mid="none" marker-end="none" marker-start="none" opacity="0.8" fill="url(#use2830_2_)" stroke="#000000" stroke-width="0.0417" stroke-linecap="round" stroke-linejoin="round" enable-background="new    " d="
				M-1245.334-118.776c-0.092,0.104-0.206,0.202-0.344,0.305c-0.351,0.257-0.843,0.511-1.339,0.767
				c-0.494,0.254-0.986,0.512-1.338,0.767c-0.351,0.255-0.554,0.511-0.554,0.767c0,0.076,0,0.771,0,0.924
				c0-0.151,0.14-0.375,0.21-0.461c0.071-0.088,0.205-0.203,0.344-0.304c0.351-0.255,0.843-0.512,1.338-0.769
				c0.496-0.254,0.988-0.51,1.338-0.766c0.35-0.254,0.555-0.51,0.555-0.766c-0.001-0.08,0-0.693-0.001-0.922
				C-1245.125-119.001-1245.244-118.88-1245.334-118.776z"/>
		</g>
	</g>
	<g>
		<g id="svg_1_1_" transform="translate(1428 153)">
			
				<path id="use2756_1_" marker-mid="none" marker-end="none" marker-start="none" stroke="#000000" stroke-width="0.0566" stroke-linecap="round" stroke-linejoin="round" d="
				M-1214.451-112.542c-0.232,0.166-0.355,0.332-0.355,0.5c0,0.276,0.347,0.557,0.941,0.832c0.594,0.277,1.428,0.556,2.268,0.832
				c0.845,0.275,1.677,0.553,2.271,0.83c0.234,0.11,0.432,0.219,0.584,0.33c0.229-0.168,0.357-0.334,0.357-0.5
				c0-0.277-0.35-0.557-0.943-0.834c-0.593-0.277-1.428-0.555-2.271-0.832c-0.838-0.277-1.674-0.552-2.268-0.83
				C-1214.104-112.324-1214.299-112.433-1214.451-112.542z"/>
			
				<path id="use2758_1_" marker-mid="none" marker-end="none" marker-start="none" stroke="#000000" stroke-width="0.0566" stroke-linecap="round" stroke-linejoin="round" d="
				M-1214.451-119.187c-0.232,0.168-0.355,0.333-0.355,0.5c0,0.275,0.347,0.557,0.941,0.833c0.594,0.276,1.428,0.556,2.268,0.83
				c0.845,0.276,1.677,0.556,2.271,0.833c0.234,0.107,0.432,0.218,0.584,0.328c0.229-0.167,0.357-0.333,0.357-0.5
				c0-0.276-0.35-0.557-0.943-0.833c-0.593-0.277-1.428-0.554-2.271-0.831c-0.838-0.277-1.674-0.555-2.268-0.83
				C-1214.104-118.966-1214.299-119.078-1214.451-119.187z"/>
			
				<path id="use2760_1_" marker-mid="none" marker-end="none" marker-start="none" stroke="#000000" stroke-width="0.0566" stroke-linecap="round" stroke-linejoin="round" d="
				M-1214.451-125.908c-0.232,0.166-0.355,0.332-0.355,0.5c0,0.277,0.347,0.557,0.941,0.834c0.594,0.275,1.428,0.553,2.268,0.83
				c0.845,0.277,1.677,0.554,2.271,0.83c0.234,0.111,0.432,0.219,0.584,0.328c0.229-0.166,0.357-0.332,0.357-0.5
				c0-0.274-0.35-0.556-0.943-0.832c-0.593-0.275-1.428-0.554-2.271-0.83c-0.838-0.276-1.674-0.555-2.268-0.832
				C-1214.104-125.688-1214.299-125.794-1214.451-125.908z"/>
			
				<path id="use2762_1_" marker-mid="none" marker-end="none" marker-start="none" stroke="#000000" stroke-width="0.0566" stroke-linecap="round" stroke-linejoin="round" d="
				M-1214.451-132.56c-0.232,0.167-0.355,0.333-0.355,0.501c0,0.277,0.347,0.557,0.941,0.833c0.594,0.278,1.428,0.554,2.268,0.83
				c0.845,0.276,1.677,0.556,2.271,0.833c0.234,0.109,0.432,0.218,0.584,0.328c0.229-0.167,0.357-0.333,0.357-0.501
				c0-0.277-0.35-0.556-0.943-0.833c-0.594-0.276-1.428-0.553-2.271-0.831c-0.838-0.276-1.674-0.556-2.268-0.831
				C-1214.104-132.34-1214.299-132.45-1214.451-132.56z"/>
			
				<path id="use2764_1_" marker-mid="none" marker-end="none" marker-start="none" stroke="#000000" stroke-width="0.0566" stroke-linecap="round" stroke-linejoin="round" d="
				M-1214.451-139.268c-0.232,0.167-0.355,0.333-0.355,0.5c0,0.277,0.347,0.555,0.941,0.833c0.594,0.278,1.428,0.554,2.268,0.831
				c0.845,0.275,1.677,0.553,2.271,0.831c0.234,0.11,0.432,0.217,0.584,0.328c0.229-0.167,0.357-0.333,0.357-0.5
				c0-0.278-0.35-0.556-0.943-0.833c-0.594-0.276-1.428-0.553-2.271-0.831c-0.838-0.276-1.674-0.554-2.268-0.831
				C-1214.104-139.049-1214.299-139.159-1214.451-139.268z"/>
			
				<path id="path2766_1_" marker-mid="none" marker-end="none" marker-start="none" stroke="#000000" stroke-width="0.0566" stroke-linecap="round" stroke-linejoin="round" d="
				M-1214.451-145.983c-0.232,0.168-0.355,0.334-0.355,0.501c0,0.278,0.347,0.558,0.941,0.834c0.594,0.276,1.428,0.554,2.268,0.83
				c0.845,0.276,1.677,0.554,2.271,0.831c0.234,0.109,0.432,0.219,0.584,0.328c0.229-0.166,0.357-0.332,0.357-0.5
				c0-0.276-0.35-0.555-0.943-0.832c-0.593-0.277-1.428-0.553-2.271-0.832c-0.838-0.275-1.674-0.553-2.268-0.829
				C-1214.104-145.763-1214.299-145.874-1214.451-145.983z"/>
			
				<path id="use2776_1_" marker-mid="none" marker-end="none" marker-start="none" stroke="#000000" stroke-width="0.0566" stroke-linecap="round" stroke-linejoin="round" d="
				M-1214.451-141.663c-0.232,0.168-0.355,0.334-0.355,0.5c0,0.277,0.347,0.557,0.941,0.832c0.594,0.277,1.428,0.555,2.268,0.832
				c0.845,0.277,1.677,0.554,2.271,0.832c0.234,0.109,0.432,0.217,0.584,0.328c0.229-0.168,0.357-0.334,0.357-0.5
				c0-0.277-0.35-0.557-0.943-0.832c-0.594-0.277-1.428-0.556-2.271-0.832c-0.838-0.277-1.674-0.555-2.268-0.832
				C-1214.104-141.442-1214.299-141.551-1214.451-141.663z"/>
			
				<path id="use2788_1_" marker-mid="none" marker-end="none" marker-start="none" stroke="#000000" stroke-width="0.0566" stroke-linecap="round" stroke-linejoin="round" d="
				M-1208.742-138.338c-0.156,0.116-0.348,0.221-0.584,0.332c-0.596,0.275-1.428,0.553-2.271,0.83
				c-0.841,0.276-1.675,0.555-2.269,0.832c-0.596,0.277-0.938,0.553-0.938,0.831c0,0.084,0.002,0.837,0.002,1.007
				c0-0.168,0.231-0.408,0.354-0.504c0.118-0.093,0.348-0.219,0.584-0.328c0.594-0.277,1.428-0.557,2.268-0.834
				c0.844-0.275,1.676-0.553,2.271-0.83s0.941-0.556,0.941-0.832c0-0.086,0-0.754,0-1
				C-1208.385-138.586-1208.586-138.454-1208.742-138.338z"/>
			
				<path id="use2790_1_" marker-mid="none" marker-end="none" marker-start="none" stroke="#000000" stroke-width="0.0566" stroke-linecap="round" stroke-linejoin="round" d="
				M-1214.451-134.952c-0.232,0.166-0.355,0.332-0.355,0.498c0,0.277,0.347,0.558,0.941,0.834c0.594,0.277,1.428,0.555,2.268,0.83
				c0.845,0.278,1.677,0.555,2.271,0.832c0.234,0.111,0.432,0.22,0.584,0.33c0.229-0.168,0.357-0.334,0.357-0.5
				c0-0.277-0.35-0.558-0.943-0.834c-0.593-0.276-1.428-0.554-2.271-0.83c-0.838-0.278-1.674-0.555-2.268-0.83
				C-1214.104-134.733-1214.299-134.842-1214.451-134.952z"/>
			
				<path id="use2802_1_" marker-mid="none" marker-end="none" marker-start="none" stroke="#000000" stroke-width="0.0566" stroke-linecap="round" stroke-linejoin="round" d="
				M-1208.742-131.624c-0.156,0.113-0.348,0.22-0.584,0.33c-0.596,0.276-1.428,0.553-2.271,0.83
				c-0.841,0.277-1.675,0.557-2.269,0.834c-0.596,0.276-0.938,0.553-0.938,0.83c0,0.084,0.002,0.838,0.002,1.006
				c0-0.166,0.231-0.408,0.354-0.502c0.118-0.096,0.348-0.221,0.584-0.328c0.594-0.278,1.428-0.557,2.268-0.834
				c0.844-0.277,1.676-0.553,2.271-0.83c0.595-0.277,0.941-0.555,0.941-0.832c0-0.086,0-0.754,0-1.002
				C-1208.385-131.872-1208.586-131.741-1208.742-131.624z"/>
			
				<path id="use2804_1_" marker-mid="none" marker-end="none" marker-start="none" stroke="#000000" stroke-width="0.0566" stroke-linecap="round" stroke-linejoin="round" d="
				M-1214.451-128.299c-0.232,0.166-0.355,0.332-0.355,0.5c0,0.276,0.347,0.555,0.941,0.832c0.594,0.276,1.428,0.555,2.268,0.831
				c0.845,0.277,1.677,0.555,2.271,0.83c0.234,0.11,0.432,0.221,0.584,0.329c0.229-0.167,0.357-0.332,0.357-0.499
				c0-0.275-0.35-0.557-0.943-0.833c-0.593-0.276-1.428-0.555-2.271-0.831c-0.838-0.276-1.674-0.554-2.268-0.831
				C-1214.104-128.081-1214.299-128.189-1214.451-128.299L-1214.451-128.299z"/>
			
				<path id="use2816_1_" marker-mid="none" marker-end="none" marker-start="none" stroke="#000000" stroke-width="0.0566" stroke-linecap="round" stroke-linejoin="round" d="
				M-1208.742-124.966c-0.156,0.114-0.348,0.221-0.584,0.329c-0.596,0.278-1.428,0.556-2.271,0.832
				c-0.841,0.276-1.675,0.558-2.269,0.833c-0.596,0.277-0.938,0.555-0.938,0.832c0,0.083,0.002,0.837,0.002,1.006
				c0-0.166,0.231-0.408,0.354-0.503c0.118-0.093,0.348-0.22,0.584-0.329c0.594-0.277,1.428-0.556,2.268-0.832
				c0.844-0.279,1.676-0.555,2.271-0.832s0.941-0.556,0.941-0.832c0-0.086,0-0.752,0-1
				C-1208.385-125.212-1208.586-125.083-1208.742-124.966z"/>
			
				<path id="use2818_1_" marker-mid="none" marker-end="none" marker-start="none" stroke="#000000" stroke-width="0.0566" stroke-linecap="round" stroke-linejoin="round" d="
				M-1214.451-121.582c-0.232,0.166-0.355,0.332-0.355,0.5c0,0.277,0.347,0.557,0.941,0.832c0.594,0.278,1.428,0.557,2.268,0.832
				c0.845,0.276,1.677,0.555,2.271,0.832c0.234,0.109,0.432,0.217,0.584,0.328c0.229-0.168,0.357-0.332,0.357-0.5
				c0-0.277-0.35-0.557-0.943-0.834c-0.593-0.277-1.428-0.553-2.271-0.83c-0.838-0.279-1.674-0.555-2.268-0.83
				C-1214.104-121.361-1214.299-121.471-1214.451-121.582z"/>
			
				<path id="use2832_1_" marker-mid="none" marker-end="none" marker-start="none" stroke="#000000" stroke-width="0.0566" stroke-linecap="round" stroke-linejoin="round" d="
				M-1214.451-114.936c-0.232,0.167-0.355,0.333-0.355,0.5c0,0.274,0.347,0.558,0.941,0.833c0.594,0.277,1.428,0.557,2.268,0.832
				c0.845,0.275,1.677,0.555,2.271,0.83c0.234,0.109,0.432,0.219,0.584,0.329c0.229-0.167,0.357-0.333,0.357-0.5
				c0-0.277-0.35-0.558-0.943-0.833c-0.594-0.277-1.428-0.555-2.271-0.832c-0.838-0.278-1.674-0.555-2.268-0.83
				C-1214.104-114.716-1214.299-114.828-1214.451-114.936z"/>
			
				<path id="use2844_1_" marker-mid="none" marker-end="none" marker-start="none" stroke="#000000" stroke-width="0.0566" stroke-linecap="round" stroke-linejoin="round" d="
				M-1208.742-111.815c-0.156,0.114-0.348,0.224-0.584,0.331c-0.596,0.275-1.428,0.554-2.271,0.831
				c-0.841,0.276-1.675,0.557-2.269,0.834c-0.596,0.276-0.938,0.552-0.938,0.829c0,0.082,0.002,0.837,0.002,1.008
				c0-0.167,0.231-0.408,0.354-0.505c0.118-0.095,0.348-0.22,0.584-0.329c0.594-0.275,1.428-0.557,2.268-0.833
				c0.844-0.276,1.676-0.554,2.271-0.83s0.941-0.556,0.941-0.832c0-0.085,0-0.752,0-1.001
				C-1208.385-112.063-1208.586-111.932-1208.742-111.815z"/>
			
				<path id="path2866_1_" marker-mid="none" marker-end="none" marker-start="none" stroke="#000000" stroke-width="0.0566" stroke-linecap="round" stroke-linejoin="round" d="
				M-1208.721-142.659c-0.154,0.115-0.353,0.221-0.584,0.33c-0.596,0.277-1.43,0.556-2.271,0.832
				c-0.842,0.277-1.674,0.556-2.27,0.834c-0.596,0.277-0.939,0.554-0.939,0.83c0,0.084,0,0.838,0,1.006
				c0-0.166,0.234-0.407,0.357-0.502c0.119-0.094,0.346-0.219,0.582-0.328c0.594-0.278,1.428-0.557,2.27-0.834
				c0.84-0.277,1.676-0.555,2.271-0.832c0.596-0.276,0.94-0.553,0.94-0.83c0-0.085,0-0.754-0.002-1.001
				C-1208.361-142.907-1208.566-142.775-1208.721-142.659L-1208.721-142.659z"/>
			
				<path id="use2876_1_" marker-mid="none" marker-end="none" marker-start="none" stroke="#000000" stroke-width="0.0566" stroke-linecap="round" stroke-linejoin="round" d="
				M-1208.742-135.945c-0.156,0.116-0.348,0.222-0.584,0.332c-0.596,0.276-1.428,0.553-2.271,0.829
				c-0.841,0.277-1.675,0.558-2.269,0.834c-0.596,0.277-0.938,0.554-0.938,0.832c0,0.084,0.002,0.836,0.002,1.004
				c0-0.165,0.231-0.406,0.354-0.502c0.118-0.094,0.348-0.219,0.584-0.329c0.594-0.277,1.428-0.556,2.268-0.833
				c0.844-0.276,1.676-0.555,2.271-0.831c0.595-0.277,0.941-0.554,0.941-0.829c0-0.087,0-0.755,0-1.002
				C-1208.385-136.193-1208.586-136.061-1208.742-135.945z"/>
			
				<path id="use2886_1_" marker-mid="none" marker-end="none" marker-start="none" stroke="#000000" stroke-width="0.0566" stroke-linecap="round" stroke-linejoin="round" d="
				M-1208.742-129.231c-0.156,0.113-0.348,0.221-0.584,0.331c-0.596,0.276-1.428,0.554-2.271,0.83
				c-0.841,0.278-1.675,0.556-2.269,0.833c-0.596,0.277-0.938,0.555-0.938,0.829c0,0.084,0.002,0.839,0.002,1.008
				c0-0.167,0.231-0.408,0.354-0.503c0.118-0.097,0.348-0.22,0.584-0.33c0.594-0.274,1.428-0.556,2.268-0.832
				c0.844-0.277,1.676-0.555,2.271-0.832c0.595-0.275,0.941-0.553,0.941-0.83c0-0.086,0-0.754,0-1.001
				C-1208.385-129.479-1208.586-129.347-1208.742-129.231L-1208.742-129.231z"/>
			
				<path id="use2896_1_" marker-mid="none" marker-end="none" marker-start="none" stroke="#000000" stroke-width="0.0566" stroke-linecap="round" stroke-linejoin="round" d="
				M-1208.742-122.574c-0.156,0.113-0.348,0.22-0.584,0.33c-0.596,0.277-1.428,0.555-2.271,0.83
				c-0.841,0.277-1.675,0.557-2.269,0.834c-0.596,0.277-0.938,0.556-0.938,0.832c0,0.082,0.002,0.836,0.002,1.004
				c0-0.166,0.231-0.406,0.354-0.502c0.118-0.094,0.348-0.219,0.584-0.33c0.594-0.274,1.428-0.555,2.268-0.832
				c0.844-0.276,1.676-0.555,2.271-0.83c0.595-0.277,0.941-0.557,0.941-0.83c0-0.087,0-0.756,0-1.001
				C-1208.385-122.824-1208.586-122.69-1208.742-122.574L-1208.742-122.574z"/>
			
				<path id="use2906_1_" marker-mid="none" marker-end="none" marker-start="none" stroke="#000000" stroke-width="0.0566" stroke-linecap="round" stroke-linejoin="round" d="
				M-1208.742-115.865c-0.156,0.115-0.348,0.222-0.584,0.33c-0.596,0.277-1.428,0.556-2.271,0.832
				c-0.841,0.277-1.675,0.558-2.269,0.832c-0.596,0.277-0.938,0.556-0.938,0.832c0,0.084,0.002,0.836,0.002,1.004
				c0-0.166,0.231-0.406,0.354-0.502c0.118-0.092,0.348-0.219,0.584-0.326c0.594-0.277,1.428-0.557,2.268-0.833
				c0.844-0.277,1.676-0.556,2.271-0.831c0.595-0.278,0.941-0.555,0.941-0.832c0-0.085,0-0.753,0-1
				C-1208.385-116.111-1208.586-115.98-1208.742-115.865z"/>
			
				<path id="path2920_1_" marker-mid="none" marker-end="none" marker-start="none" stroke="#000000" stroke-width="0.0566" stroke-linecap="round" stroke-linejoin="round" d="
				M-1208.742-145.051c-0.156,0.114-0.348,0.219-0.584,0.329c-0.596,0.277-1.428,0.556-2.271,0.832
				c-0.841,0.277-1.675,0.556-2.269,0.833c-0.596,0.277-0.938,0.553-0.938,0.83c0,0.084,0.002,0.838,0.002,1.006
				c0-0.167,0.231-0.408,0.354-0.503c0.118-0.093,0.348-0.219,0.584-0.329c0.594-0.277,1.428-0.555,2.268-0.833
				c0.844-0.278,1.676-0.555,2.271-0.829c0.595-0.277,0.941-0.556,0.941-0.832c0-0.086,0-0.752,0-1.002
				C-1208.385-145.299-1208.586-145.167-1208.742-145.051z"/>
			
				<path id="use2830_1_" marker-mid="none" marker-end="none" marker-start="none" stroke="#000000" stroke-width="0.0566" stroke-linecap="round" stroke-linejoin="round" d="
				M-1208.799-118.221c-0.156,0.115-0.352,0.222-0.584,0.331c-0.596,0.277-1.432,0.555-2.271,0.831
				c-0.84,0.274-1.674,0.556-2.27,0.833c-0.596,0.275-0.941,0.557-0.941,0.832c0,0.083,0.002,0.837,0.002,1.004
				c0-0.166,0.234-0.406,0.355-0.501s0.348-0.22,0.582-0.329c0.596-0.275,1.43-0.556,2.27-0.833
				c0.842-0.276,1.678-0.555,2.271-0.833c0.594-0.275,0.941-0.552,0.941-0.828c0-0.086,0-0.754,0-1
				C-1208.441-118.466-1208.645-118.335-1208.799-118.221z"/>
		</g>
	</g>
	
		<linearGradient id="SVGID_1_" gradientUnits="userSpaceOnUse" x1="169.1245" y1="-307.333" x2="169.1245" y2="-275.0835" gradientTransform="matrix(1 0 0 -1 12 -264.667)">
		<stop  offset="0" style="stop-color:#FFFFFF;stop-opacity:0"/>
		<stop  offset="0.5841" style="stop-color:#FFFFFF"/>
	</linearGradient>
	<polygon fill="url(#SVGID_1_)" points="178.75,12.167 183.5,10.417 183.5,42.667 178.75,42.667 	"/>
</g>
<g id="Layer_1_1_">
	<g>
		<path d="M8.766,10.5h15.609v1.289c-1.47,0.03-2.604,0.223-3.41,0.573c-0.805,0.351-1.238,1.06-1.301,2.121
			c-0.031,0.656-0.062,1.177-0.094,1.56c-0.032,0.383-0.047,0.551-0.047,0.504v21.608c0,0.924,0.098,1.656,0.293,2.203
			c0.195,0.547,0.473,0.938,0.832,1.172s0.773,0.396,1.242,0.479c0.469,0.087,1.297,0.178,2.484,0.271v1.289H8.765V42.28
			c1.391-0.016,2.441-0.158,3.152-0.434s1.172-0.713,1.383-1.312c0.211-0.602,0.316-1.56,0.316-2.871v-20.93
			c0-1.25-0.059-2.176-0.176-2.776c-0.117-0.602-0.34-1.035-0.668-1.302c-0.328-0.266-0.77-0.448-1.324-0.551
			c-0.554-0.103-1.449-0.207-2.684-0.315V10.5H8.766z M14.391,16.052v23.345c0,0.797-0.141,1.383-0.422,1.758
			c-0.281,0.375-0.766,0.75-1.453,1.125c1.016-0.029,1.836-0.197,2.461-0.504c0.625-0.305,0.938-0.973,0.938-2.004V14.905
			c0-1.062-0.219-1.858-0.656-2.391c-0.437-0.533-1.305-0.772-2.602-0.728c1.188,0.625,1.781,1.812,1.781,3.562
			c0,0.125-0.004,0.242-0.012,0.352C14.417,15.811,14.407,15.927,14.391,16.052z"/>
		<path d="M35.718,22.686v3.116c1.312-1.016,2.527-1.788,3.646-2.319c1.117-0.53,2.449-0.797,3.996-0.797
			c4.422,0,6.633,2.194,6.633,6.586v10.688c0,1.017,0.242,1.656,0.727,1.922c0.485,0.267,1.219,0.397,2.203,0.397v1.289H41.625
			V42.28c1,0,1.73-0.158,2.191-0.479s0.69-0.996,0.69-2.027v-11.32c0-0.828-0.129-1.527-0.387-2.098
			c-0.259-0.57-0.638-1.004-1.138-1.301c-0.5-0.297-1.108-0.445-1.827-0.445c-0.892,0-1.763,0.23-2.613,0.691
			c-0.85,0.461-1.793,1.161-2.824,2.098v12.375c0,0.703,0.117,1.242,0.353,1.617c0.234,0.375,0.551,0.609,0.949,0.703
			c0.397,0.094,0.973,0.156,1.723,0.188v1.289h-11.32v-1.289c0.953,0,1.688-0.129,2.203-0.387s0.773-0.848,0.773-1.77V29.743
			c0-1.031-0.234-1.863-0.703-2.496c-0.469-0.635-1.228-1.114-2.273-1.441v-0.773l7.406-2.344L35.718,22.686L35.718,22.686z
			 M31.171,28.965v10.76c0,0.703-0.051,1.211-0.151,1.521c-0.102,0.312-0.324,0.656-0.668,1.031c1.53-0.141,2.297-0.992,2.297-2.555
			v-11.18c0-0.781-0.277-1.449-0.832-2.004c-0.555-0.557-1.199-0.833-1.935-0.833c-0.077,0-0.219,0.016-0.422,0.047
			c-0.203,0.031-0.336,0.047-0.397,0.047C30.468,26.444,31.171,27.5,31.171,28.965z M45.282,28.215v11.557
			c0,0.482-0.012,0.84-0.035,1.064c-0.023,0.228-0.086,0.445-0.188,0.656c-0.103,0.211-0.302,0.473-0.599,0.785h0.444
			c0.812,0,1.353-0.301,1.617-0.902c0.266-0.601,0.398-1.504,0.398-2.707V28.311c0-1.346-0.297-2.367-0.891-3.069
			c-0.594-0.703-1.641-1.087-3.141-1.148c0.844,0.344,1.452,0.84,1.827,1.488C45.091,26.229,45.282,27.108,45.282,28.215z"/>
		<path d="M68.343,12.514l7.242-2.392h0.961V39.35c0,0.826,0.224,1.387,0.668,1.676c0.445,0.289,1.216,0.436,2.31,0.436v1.242
			l-8.32,1.5v-2.744c-2.266,1.828-4.562,2.742-6.891,2.742c-1.297,0-2.508-0.272-3.633-0.82c-1.125-0.547-2.095-1.315-2.906-2.309
			c-0.812-0.994-1.435-2.134-1.863-3.423c-0.43-1.289-0.645-2.646-0.645-4.065c0-2.047,0.487-3.905,1.465-5.578
			c0.977-1.672,2.297-2.978,3.961-3.914c1.664-0.938,3.52-1.406,5.565-1.406c1.453,0,3.103,0.336,4.945,1.008v-5.766
			c0-1.281-0.16-2.219-0.479-2.812c-0.32-0.593-1.113-1.141-2.38-1.641V12.514L68.343,12.514z M63.821,23.789
			c-1.312,0.28-2.414,0.719-3.305,1.312c-1.359,0.844-2.445,2.056-3.259,3.633c-0.814,1.578-1.219,3.259-1.219,5.039
			c0,1.72,0.354,3.315,1.065,4.793s1.715,2.647,3.013,3.517c1.297,0.867,2.741,1.301,4.336,1.301c1.094,0,2.069-0.163,2.93-0.491
			c-0.719,0.062-1.172,0.094-1.358,0.094c-1.031,0-2.051-0.211-3.06-0.633c-1.008-0.422-1.926-1.043-2.754-1.862
			c-0.828-0.82-1.479-1.802-1.957-2.941c-0.478-1.139-0.715-2.383-0.715-3.728C57.54,29.647,59.632,26.301,63.821,23.789z
			 M71.204,39.772V26.039c-0.547-0.656-1.184-1.164-1.91-1.523s-1.465-0.539-2.215-0.539c-1.109,0-2.133,0.34-3.07,1.02
			c-0.937,0.68-1.676,1.703-2.215,3.07s-0.809,3.066-0.809,5.098c0,1.719,0.242,3.207,0.727,4.465
			c0.484,1.26,1.164,2.211,2.039,2.859s1.875,0.973,3,0.973C68.36,41.458,69.843,40.897,71.204,39.772z M70.196,13.147h-0.797
			c1.172,0.517,1.895,1.074,2.168,1.677c0.272,0.602,0.41,1.401,0.41,2.401V43.03c0.516-0.219,0.895-0.479,1.137-0.771
			c0.242-0.297,0.363-0.742,0.363-1.336v-23.65c0-1.405-0.211-2.444-0.634-3.117C72.421,13.483,71.54,13.147,70.196,13.147z"/>
		<path d="M89.579,22.686v16.943c0,0.721,0.074,1.264,0.223,1.629c0.149,0.367,0.43,0.621,0.844,0.764s1.051,0.229,1.91,0.258v1.289
			H81.61V42.28c0.97-0.029,1.646-0.227,2.027-0.586c0.383-0.357,0.574-1,0.574-1.922V29.014c0-0.674-0.227-1.299-0.68-1.875
			c-0.453-0.578-1.094-1.009-1.922-1.289V25.1l7.008-2.414H89.579L89.579,22.686z M84.985,29.083v11.133
			c0,0.906-0.32,1.596-0.961,2.062c0.858,0,1.488-0.195,1.887-0.586s0.598-1.031,0.598-1.922V28.78c0-1-0.242-1.771-0.727-2.309
			c-0.485-0.539-1.117-0.81-1.898-0.81c-0.359,0-0.648,0.016-0.867,0.047C84.329,26.397,84.985,27.522,84.985,29.083z"/>
		<path d="M100.102,25.427c0,0.062,0.102,0.289,0.305,0.681c0.203,0.393,0.305,0.76,0.305,1.104c0,0.672-0.277,1.27-0.832,1.793
			c-0.555,0.521-1.246,0.785-2.074,0.785c-0.797,0-1.43-0.207-1.897-0.621c-0.467-0.414-0.703-0.896-0.703-1.441
			c0-0.812,0.396-1.609,1.185-2.391c0.788-0.782,1.875-1.418,3.258-1.91c1.383-0.492,2.91-0.738,4.582-0.738
			c1.219,0,2.354,0.211,3.41,0.633c1.055,0.422,1.895,1.062,2.52,1.922c0.625,0.86,0.938,1.898,0.938,3.117v11.906
			c0,0.953,0.273,1.43,0.82,1.43c0.328,0,0.727-0.258,1.195-0.773l0.867,1.01c-0.767,0.766-1.474,1.344-2.121,1.732
			c-0.648,0.392-1.418,0.586-2.31,0.586c-1.03,0-1.836-0.229-2.414-0.689c-0.577-0.461-0.983-1.178-1.219-2.146
			c-2.156,1.859-4.289,2.789-6.397,2.789c-1.5,0-2.691-0.391-3.574-1.172c-0.883-0.781-1.324-1.773-1.324-2.977
			c0-1.078,0.27-1.996,0.809-2.754s1.25-1.43,2.133-2.016s2.185-1.328,3.902-2.229c1.719-0.898,3.133-1.668,4.242-2.311v-3.539
			c0-1.062-0.242-1.867-0.727-2.414s-1.211-0.819-2.181-0.819c-0.844,0-1.504,0.151-1.979,0.457
			C100.342,24.737,100.102,25.069,100.102,25.427z M101.579,43.1c-1.422,0-2.559-0.289-3.41-0.867s-1.277-1.414-1.277-2.508
			c0-0.799,0.207-1.553,0.621-2.264c0.414-0.711,1.035-1.504,1.863-2.379c-1.266,0.734-2.246,1.484-2.941,2.25
			c-0.695,0.768-1.043,1.672-1.043,2.719c0,0.953,0.418,1.746,1.254,2.381c0.836,0.633,1.746,0.947,2.73,0.947
			C100.329,43.379,101.063,43.29,101.579,43.1z M99.375,28.311c-0.562,0.047-0.992-0.062-1.289-0.328s-0.444-0.578-0.444-0.938
			c0-0.483,0.133-0.918,0.397-1.301c0.264-0.383,0.728-0.934,1.383-1.652c-1.108,0.562-1.961,1.125-2.555,1.688
			c-0.595,0.562-0.892,1.195-0.892,1.896c0,0.312,0.16,0.605,0.48,0.881c0.32,0.275,0.699,0.408,1.137,0.408
			C98.343,28.965,98.938,28.75,99.375,28.311z M105.704,39.868v-7.523c-2,1.125-3.395,2.141-4.184,3.047s-1.185,2-1.185,3.281
			c0,0.857,0.233,1.521,0.703,1.992c0.469,0.469,1.017,0.703,1.642,0.703C103.665,41.368,104.671,40.868,105.704,39.868z
			 M106.477,28.733v9.26c0,1.826,0.194,3.189,0.586,4.09c0.391,0.897,1.155,1.348,2.297,1.348c0.516,0,0.93-0.062,1.242-0.188
			c-0.938-0.143-1.603-0.518-1.992-1.125c-0.391-0.609-0.586-1.562-0.586-2.859V28.5c0-1.625-0.23-2.747-0.691-3.363
			c-0.461-0.617-1.254-0.988-2.379-1.113c0.609,0.312,1.016,0.766,1.219,1.359C106.375,25.975,106.477,27.09,106.477,28.733z"/>
		<path d="M150.21,37.801l-2.625-6.701H136.5l-1.547,3.982c-0.406,1.018-0.609,2.07-0.609,3.164c0,1.047,0.332,1.969,0.996,2.768
			c0.664,0.797,1.591,1.219,2.777,1.266v1.289h-10.853V42.28c2.422-0.357,4.375-2.443,5.859-6.258l8.109-20.767
			c-0.422-0.733-0.867-1.229-1.336-1.487c-0.469-0.259-1.156-0.435-2.062-0.526v-1.148l5.625-1.922h2.156l10.852,27.68
			c0.625,1.562,1.25,2.621,1.875,3.176s1.578,0.973,2.859,1.254v1.289H147.28v-1.289c1.203-0.125,2.105-0.312,2.707-0.562
			s0.902-0.733,0.902-1.452C150.891,39.639,150.665,38.819,150.21,37.801z M129.774,42.28h4.5c-0.984-0.766-1.478-1.729-1.478-2.883
			c0-0.328,0.017-0.586,0.047-0.771c-0.422,0.779-0.848,1.443-1.276,1.992C131.137,41.165,130.54,41.715,129.774,42.28z
			 M137.063,29.6H147l-4.993-12.634L137.063,29.6z M152.343,36.936l-8.366-21.211c-0.406-1.062-0.828-1.815-1.267-2.263
			c-0.438-0.445-1.039-0.668-1.805-0.668c-0.453,0-0.82,0.031-1.103,0.095c0.75,0.297,1.316,0.711,1.699,1.241
			c0.383,0.531,0.746,1.242,1.09,2.134l8.297,21.211c0.517,1.25,0.773,2.229,0.773,2.93c0,0.453-0.086,0.781-0.258,0.984
			c-0.172,0.201-0.516,0.5-1.031,0.891h0.516c0.734,0,1.301-0.193,1.699-0.586s0.598-0.854,0.598-1.383
			C153.188,39.543,152.907,38.418,152.343,36.936z"/>
		<path d="M165.821,39.915V17.694c0-1.188-0.188-2.116-0.562-2.789c-0.374-0.672-1.242-1.258-2.602-1.758v-0.914l7.617-2.508h0.914
			v29.318c0,1.221,0.137,2.062,0.41,2.531c0.272,0.469,0.973,0.703,2.098,0.703h0.633v1.289h-11.672v-1.289h0.562
			c0.923,0,1.587-0.195,1.992-0.586C165.617,41.301,165.821,40.708,165.821,39.915z M168.118,38.954V17.833
			c0-1.108-0.051-1.996-0.152-2.66c-0.101-0.664-0.391-1.219-0.867-1.664c-0.476-0.444-1.238-0.668-2.285-0.668
			c-0.516,0-0.93,0.017-1.242,0.048c1.438,0.405,2.302,1.008,2.591,1.805c0.289,0.798,0.434,1.845,0.434,3.142v21.938
			c0,1.062-0.319,1.898-0.961,2.508c1.095-0.047,1.781-0.348,2.062-0.902C167.977,40.827,168.118,40.014,168.118,38.954z"/>
		<path d="M178.829,39.915V17.694c0-1.188-0.188-2.116-0.562-2.789c-0.373-0.672-1.242-1.258-2.602-1.758v-0.914l7.617-2.508h0.914
			v29.318c0,1.221,0.137,2.062,0.41,2.531c0.272,0.469,0.973,0.703,2.098,0.703h0.633v1.289h-11.672v-1.289h0.562
			c0.922,0,1.586-0.195,1.991-0.586C178.625,41.301,178.829,40.708,178.829,39.915z M181.125,38.954V17.833
			c0-1.108-0.051-1.996-0.151-2.66c-0.102-0.664-0.392-1.219-0.867-1.664c-0.477-0.444-1.238-0.668-2.285-0.668
			c-0.516,0-0.93,0.017-1.242,0.048c1.438,0.405,2.301,1.008,2.59,1.805c0.289,0.798,0.434,1.845,0.434,3.142v21.938
			c0,1.062-0.319,1.898-0.961,2.508c1.094-0.047,1.781-0.348,2.062-0.902C180.985,40.827,181.125,40.014,181.125,38.954z"/>
		<path d="M207.352,37.754l0.938,0.729c-0.703,1.312-1.539,2.393-2.508,3.232c-0.97,0.845-2.035,1.471-3.199,1.875
			c-1.164,0.406-2.378,0.609-3.644,0.609c-1.72,0-3.316-0.414-4.793-1.242c-1.478-0.828-2.646-2.021-3.504-3.586
			c-0.859-1.562-1.289-3.336-1.289-5.32c0-1.561,0.262-3.029,0.785-4.404c0.522-1.375,1.25-2.586,2.18-3.633
			c0.93-1.048,2.008-1.863,3.233-2.449c1.225-0.586,2.535-0.879,3.927-0.879c1.406,0,2.747,0.293,4.019,0.879
			s2.285,1.396,3.035,2.427c0.547,0.75,0.94,1.52,1.184,2.309c0.244,0.789,0.435,1.738,0.574,2.848h-14.156
			c0.062,1.625,0.34,3,0.832,4.125c0.492,1.125,1.133,2.031,1.922,2.719c0.789,0.688,1.629,1.18,2.521,1.478
			c0.891,0.298,1.741,0.444,2.555,0.444C203.93,39.915,205.727,39.194,207.352,37.754z M194.485,25.03
			c-2.922,2.312-4.383,5.346-4.383,9.096c0,2.719,0.871,4.939,2.612,6.668c1.742,1.727,3.754,2.59,6.035,2.59
			c1.328,0,2.661-0.271,3.997-0.809c1.336-0.539,2.465-1.342,3.387-2.402c-0.953,0.607-1.926,1.104-2.918,1.488
			c-0.992,0.383-2.176,0.572-3.551,0.572c-2.328,0-4.271-0.812-5.824-2.438c-1.554-1.625-2.332-3.742-2.332-6.353
			c0-1.655,0.259-3.142,0.773-4.452C192.795,27.678,193.532,26.358,194.485,25.03z M194.274,29.647h8.179v-0.771
			c0-0.906-0.164-1.715-0.492-2.426c-0.328-0.713-0.777-1.26-1.348-1.643c-0.571-0.384-1.222-0.574-1.958-0.574
			c-1.188,0-2.195,0.526-3.023,1.582C194.805,26.872,194.352,28.147,194.274,29.647z M203.203,29.647h1.641
			c-0.047-1.75-0.406-3.043-1.078-3.879s-1.797-1.396-3.375-1.677c1,0.453,1.718,1.043,2.156,1.771
			c0.438,0.729,0.656,1.832,0.656,3.314V29.647L203.203,29.647z"/>
		<path fill="none" d="M213.352,39.915V17.694c0-1.188-0.188-2.116-0.562-2.789c-0.373-0.672-1.242-1.258-2.603-1.758v-0.914
			l7.617-2.508h0.914v29.318c0,1.221,0.139,2.062,0.41,2.531c0.273,0.469,0.973,0.703,2.098,0.703h0.635v1.289h-11.674v-1.289h0.562
			c0.922,0,1.586-0.195,1.992-0.586C213.146,41.301,213.352,40.708,213.352,39.915z M215.648,38.954V17.833
			c0-1.108-0.051-1.996-0.152-2.66s-0.391-1.219-0.867-1.664c-0.477-0.444-1.238-0.668-2.285-0.668c-0.516,0-0.93,0.017-1.242,0.048
			c1.439,0.405,2.301,1.008,2.59,1.805c0.289,0.798,0.437,1.845,0.437,3.142v21.938c0,1.062-0.319,1.898-0.961,2.508
			c1.094-0.047,1.778-0.348,2.062-0.902C215.508,40.827,215.648,40.014,215.648,38.954z"/>
		<path d="M241.875,37.754l0.939,0.729c-0.703,1.312-1.539,2.393-2.51,3.232c-0.97,0.845-2.035,1.471-3.197,1.875
			c-1.164,0.406-2.381,0.609-3.646,0.609c-1.719,0-3.316-0.414-4.793-1.242s-2.645-2.021-3.504-3.586
			c-0.859-1.562-1.289-3.336-1.289-5.32c0-1.561,0.262-3.029,0.785-4.404c0.521-1.375,1.25-2.586,2.18-3.633
			c0.93-1.048,2.008-1.863,3.234-2.449c1.225-0.586,2.535-0.879,3.926-0.879c1.406,0,2.746,0.293,4.02,0.879
			c1.274,0.586,2.285,1.396,3.035,2.427c0.547,0.75,0.941,1.52,1.187,2.309s0.434,1.738,0.573,2.848h-14.157
			c0.062,1.625,0.34,3,0.831,4.125c0.492,1.125,1.134,2.031,1.923,2.719c0.789,0.688,1.629,1.18,2.521,1.478
			c0.893,0.298,1.741,0.444,2.557,0.444C238.453,39.915,240.25,39.194,241.875,37.754z M229.008,25.03
			c-2.922,2.312-4.383,5.346-4.383,9.096c0,2.719,0.871,4.939,2.613,6.668c1.742,1.727,3.754,2.59,6.035,2.59
			c1.326,0,2.658-0.271,3.996-0.809c1.336-0.539,2.465-1.342,3.387-2.402c-0.953,0.607-1.926,1.104-2.918,1.488
			c-0.992,0.383-2.176,0.572-3.551,0.572c-2.328,0-4.271-0.812-5.824-2.438c-1.555-1.625-2.332-3.742-2.332-6.353
			c0-1.655,0.258-3.142,0.771-4.452C227.32,27.676,228.055,26.358,229.008,25.03z M228.797,29.647h8.18v-0.771
			c0-0.906-0.162-1.715-0.49-2.426c-0.327-0.713-0.776-1.26-1.35-1.643c-0.568-0.384-1.223-0.574-1.957-0.574
			c-1.188,0-2.193,0.526-3.021,1.582C229.331,26.872,228.875,28.147,228.797,29.647z M237.727,29.647h1.644
			c-0.047-1.75-0.406-3.043-1.078-3.879s-1.797-1.396-3.375-1.677c1,0.453,1.72,1.043,2.156,1.771
			c0.437,0.729,0.653,1.832,0.653,3.314V29.647L237.727,29.647z"/>
		<path d="M257.391,10.5h27.308l2.883,7.594h-1.733c-0.938-1.078-1.982-2.051-3.142-2.918c-1.156-0.867-2.297-1.566-3.422-2.098
			c-1.125-0.533-2.188-0.884-3.188-1.056c-0.904-0.155-1.836-0.233-2.789-0.233c-1.578,0-2.697,0.151-3.361,0.457
			c-0.663,0.305-1.081,0.844-1.254,1.616c-0.174,0.772-0.26,2.082-0.26,3.927v8.062h4.269c2.153,0,3.784-0.479,4.887-1.44
			s1.677-2.435,1.724-4.418h1.688V32.53h-1.688c-0.142-1.576-0.422-2.736-0.845-3.479c-0.422-0.742-1.09-1.242-2.004-1.5
			s-2.229-0.387-3.948-0.387h-4.078v11.461c0,1.357,0.379,2.309,1.139,2.848c0.758,0.539,2.09,0.809,3.996,0.809h0.606v1.289
			h-16.641v-1.289c1.53-0.047,2.641-0.203,3.328-0.469c0.686-0.266,1.145-0.715,1.37-1.348s0.341-1.598,0.341-2.896V17.083v-1.125
			c0-1.5-0.277-2.578-0.832-3.233c-0.558-0.656-1.802-0.983-3.738-0.983c-0.108,0-0.211,0.004-0.305,0.012
			c-0.097,0.008-0.195,0.02-0.308,0.035V10.5H257.391z M264.82,39.254V17.177c0-1.608-0.053-2.772-0.152-3.491
			c-0.1-0.72-0.387-1.242-0.855-1.569c-0.467-0.328-1.25-0.439-2.344-0.328c0.828,0.297,1.344,0.719,1.547,1.266
			c0.203,0.547,0.308,1.602,0.308,3.164v21.938c0,0.969-0.035,1.688-0.105,2.156c-0.069,0.469-0.215,0.84-0.434,1.113
			c-0.222,0.273-0.597,0.559-1.125,0.854c1.153,0.018,1.973-0.205,2.448-0.668C264.582,41.151,264.82,40.368,264.82,39.254z
			 M279.117,28.78v-4.944c-0.328,0.641-0.73,1.133-1.207,1.477c-0.479,0.344-1.191,0.688-2.146,1.031
			c0.939,0.234,1.668,0.535,2.191,0.902C278.479,27.612,278.867,28.125,279.117,28.78z M284.695,15.677l-2.297-3.891h-4.385
			c0.971,0.312,1.827,0.66,2.577,1.043c0.75,0.383,1.396,0.771,1.937,1.16C283.066,14.38,283.789,14.944,284.695,15.677z"/>
		<path d="M297.633,22.686v16.943c0,0.721,0.074,1.264,0.225,1.629c0.148,0.367,0.431,0.621,0.845,0.764s1.051,0.229,1.909,0.258
			v1.289h-10.944V42.28c0.969-0.029,1.646-0.227,2.026-0.586c0.384-0.357,0.572-1,0.572-1.922V29.014
			c0-0.674-0.227-1.299-0.68-1.875c-0.453-0.578-1.094-1.009-1.922-1.289V25.1l7.008-2.414H297.633L297.633,22.686z M293.039,29.083
			v11.133c0,0.906-0.32,1.596-0.961,2.062c0.859,0,1.488-0.195,1.887-0.586c0.4-0.391,0.598-1.031,0.598-1.922V28.78
			c0-1-0.239-1.771-0.727-2.309c-0.484-0.539-1.117-0.81-1.898-0.81c-0.356,0-0.646,0.016-0.864,0.047
			C292.383,26.397,293.039,27.522,293.039,29.083z M294.75,11.272c0.594,0,1.148,0.146,1.664,0.435s0.922,0.684,1.219,1.184
			s0.445,1.047,0.445,1.641c0,0.594-0.148,1.145-0.445,1.652c-0.297,0.507-0.703,0.91-1.219,1.207
			c-0.516,0.297-1.07,0.445-1.664,0.445c-0.891,0-1.656-0.328-2.297-0.984c-0.641-0.656-0.961-1.43-0.961-2.32
			c0-0.578,0.145-1.121,0.434-1.629c0.289-0.508,0.689-0.906,1.195-1.195C293.629,11.417,294.172,11.272,294.75,11.272z
			 M295.148,12.022c-0.924,0-1.635,0.22-2.135,0.655c-0.5,0.439-0.75,1.039-0.75,1.806c0,0.733,0.241,1.341,0.729,1.815
			c0.484,0.477,1.203,0.738,2.156,0.785c-0.5-0.453-0.867-0.854-1.104-1.207c-0.235-0.352-0.353-0.801-0.353-1.348
			C293.695,13.514,294.18,12.677,295.148,12.022z"/>
		<path d="M310.781,22.686v3.116c1.312-1.016,2.525-1.788,3.645-2.319c1.119-0.53,2.449-0.797,3.996-0.797
			c4.422,0,6.633,2.194,6.633,6.586v10.688c0,1.017,0.242,1.656,0.729,1.922c0.483,0.267,1.219,0.397,2.202,0.397v1.289h-11.299
			V42.28c1,0,1.73-0.158,2.191-0.479s0.691-0.996,0.691-2.027v-11.32c0-0.828-0.129-1.527-0.389-2.098
			c-0.259-0.57-0.638-1.004-1.138-1.301c-0.5-0.297-1.106-0.445-1.828-0.445c-0.891,0-1.762,0.23-2.61,0.691
			c-0.853,0.461-1.793,1.161-2.824,2.098v12.375c0,0.703,0.117,1.242,0.352,1.617c0.236,0.375,0.551,0.609,0.949,0.703
			s0.973,0.156,1.723,0.188v1.289h-11.318v-1.289c0.951,0,1.688-0.129,2.201-0.387c0.519-0.258,0.773-0.848,0.773-1.77V29.743
			c0-1.031-0.234-1.863-0.703-2.496c-0.469-0.635-1.227-1.114-2.271-1.441v-0.773l7.404-2.344L310.781,22.686L310.781,22.686z
			 M306.234,28.965v10.76c0,0.703-0.053,1.211-0.152,1.521c-0.1,0.312-0.324,0.656-0.668,1.031c1.531-0.141,2.297-0.992,2.297-2.555
			v-11.18c0-0.781-0.277-1.449-0.832-2.004c-0.555-0.557-1.199-0.833-1.934-0.833c-0.078,0-0.221,0.016-0.422,0.047
			c-0.203,0.031-0.336,0.047-0.398,0.047C305.531,26.444,306.234,27.5,306.234,28.965z M320.344,28.215v11.557
			c0,0.482-0.012,0.84-0.035,1.064c-0.021,0.228-0.086,0.445-0.188,0.656s-0.301,0.473-0.598,0.785h0.442
			c0.812,0,1.354-0.301,1.617-0.902c0.265-0.601,0.397-1.504,0.397-2.707V28.311c0-1.346-0.297-2.367-0.893-3.069
			c-0.594-0.703-1.641-1.087-3.141-1.148c0.844,0.344,1.453,0.84,1.828,1.488C320.152,26.229,320.344,27.108,320.344,28.215z"/>
		<path d="M343.406,12.514l7.242-2.392h0.961V39.35c0,0.826,0.223,1.387,0.668,1.676c0.443,0.289,1.215,0.436,2.309,0.436v1.242
			l-8.32,1.5v-2.744c-2.266,1.828-4.561,2.742-6.891,2.742c-1.297,0-2.508-0.272-3.633-0.82c-1.125-0.547-2.094-1.315-2.906-2.309
			c-0.811-0.994-1.434-2.134-1.863-3.423c-0.428-1.289-0.645-2.646-0.645-4.065c0-2.047,0.488-3.905,1.465-5.578
			c0.979-1.672,2.297-2.978,3.961-3.914c1.664-0.938,3.521-1.406,5.566-1.406c1.453,0,3.102,0.336,4.943,1.008v-5.766
			c0-1.281-0.158-2.219-0.479-2.812c-0.32-0.593-1.113-1.141-2.38-1.641v-0.962H343.406z M338.883,23.789
			c-1.311,0.28-2.414,0.719-3.305,1.312c-1.359,0.844-2.445,2.056-3.258,3.633c-0.813,1.578-1.221,3.259-1.221,5.039
			c0,1.72,0.354,3.315,1.065,4.793s1.715,2.647,3.012,3.517c1.298,0.867,2.742,1.301,4.337,1.301c1.096,0,2.069-0.163,2.932-0.491
			c-0.721,0.062-1.172,0.094-1.359,0.094c-1.031,0-2.051-0.211-3.059-0.633c-1.01-0.422-1.928-1.043-2.754-1.862
			c-0.828-0.82-1.48-1.802-1.957-2.941c-0.479-1.139-0.717-2.383-0.717-3.728C332.602,29.647,334.695,26.301,338.883,23.789z
			 M346.266,39.772V26.039c-0.547-0.656-1.184-1.164-1.908-1.523c-0.727-0.359-1.467-0.539-2.217-0.539
			c-1.106,0-2.133,0.34-3.067,1.02c-0.938,0.68-1.679,1.703-2.216,3.07c-0.539,1.367-0.811,3.066-0.811,5.098
			c0,1.719,0.242,3.207,0.729,4.465c0.484,1.26,1.162,2.211,2.037,2.859s1.875,0.973,3,0.973
			C343.422,41.458,344.906,40.897,346.266,39.772z M345.258,13.147h-0.797c1.172,0.517,1.896,1.074,2.168,1.677
			c0.273,0.602,0.41,1.401,0.41,2.401V43.03c0.516-0.219,0.895-0.479,1.137-0.771c0.242-0.297,0.363-0.742,0.363-1.336v-23.65
			c0-1.405-0.211-2.444-0.633-3.117C347.484,13.483,346.602,13.147,345.258,13.147z"/>
		<path d="M374.883,37.754l0.939,0.729c-0.703,1.312-1.539,2.393-2.51,3.232c-0.97,0.845-2.033,1.471-3.197,1.875
			c-1.164,0.406-2.379,0.609-3.646,0.609c-1.719,0-3.314-0.414-4.793-1.242c-1.477-0.828-2.645-2.021-3.504-3.586
			c-0.859-1.562-1.289-3.336-1.289-5.32c0-1.561,0.262-3.029,0.785-4.404c0.521-1.375,1.25-2.586,2.18-3.633
			c0.932-1.048,2.008-1.863,3.234-2.449c1.225-0.586,2.535-0.879,3.926-0.879c1.406,0,2.746,0.293,4.021,0.879
			c1.271,0.586,2.283,1.396,3.033,2.427c0.549,0.75,0.94,1.52,1.186,2.309s0.434,1.738,0.574,2.848h-14.156
			c0.061,1.625,0.34,3,0.832,4.125s1.133,2.031,1.922,2.719c0.789,0.688,1.629,1.18,2.52,1.478c0.894,0.298,1.742,0.444,2.558,0.444
			C371.461,39.915,373.258,39.194,374.883,37.754z M362.016,25.03c-2.922,2.312-4.383,5.346-4.383,9.096
			c0,2.719,0.871,4.939,2.613,6.668c1.742,1.727,3.754,2.59,6.035,2.59c1.328,0,2.66-0.271,3.996-0.809
			c1.336-0.539,2.465-1.342,3.387-2.402c-0.953,0.607-1.926,1.104-2.918,1.488c-0.992,0.383-2.176,0.572-3.551,0.572
			c-2.328,0-4.271-0.812-5.824-2.438s-2.332-3.742-2.332-6.353c0-1.655,0.258-3.142,0.771-4.452
			C360.328,27.676,361.062,26.358,362.016,25.03z M361.805,29.647h8.182v-0.771c0-0.906-0.163-1.715-0.491-2.426
			c-0.328-0.713-0.777-1.26-1.351-1.643c-0.567-0.384-1.223-0.574-1.957-0.574c-1.188,0-2.192,0.526-3.021,1.582
			C362.339,26.872,361.883,28.147,361.805,29.647z M370.734,29.647h1.641c-0.047-1.75-0.406-3.043-1.078-3.879
			s-1.797-1.396-3.375-1.677c1,0.453,1.719,1.043,2.156,1.771c0.438,0.729,0.656,1.832,0.656,3.314V29.647z"/>
		<path d="M386.602,22.686v3.607c1.203-1.357,2.125-2.3,2.769-2.822c0.641-0.522,1.414-0.785,2.317-0.785
			c0.781,0,1.441,0.276,1.98,0.832s0.809,1.254,0.809,2.099c0,0.875-0.24,1.604-0.727,2.19s-1.094,0.879-1.828,0.879
			c-0.328,0-0.688-0.062-1.078-0.188c-0.389-0.125-0.719-0.289-0.982-0.492c-0.155-0.125-0.319-0.258-0.491-0.397
			c-0.172-0.139-0.324-0.25-0.457-0.327c-0.134-0.078-0.277-0.117-0.437-0.117c-0.297,0-0.59,0.112-0.879,0.34
			s-0.621,0.543-0.996,0.949v11.319c0,0.812,0.113,1.392,0.342,1.733c0.228,0.344,0.578,0.56,1.056,0.646s1.31,0.13,2.496,0.13
			v1.288h-12.588v-1.29h0.633c1.812,0,2.719-0.719,2.719-2.154V29.6c0-1.799-1.116-3.031-3.352-3.703V25.1l7.547-2.414H386.602
			L386.602,22.686z M382.031,29.6v10.664c0,0.529-0.086,0.926-0.258,1.186c-0.174,0.258-0.424,0.533-0.75,0.83
			c0.891-0.076,1.528-0.314,1.922-0.715c0.391-0.398,0.586-1.09,0.586-2.072V29.6c0-1.346-0.234-2.32-0.703-2.932
			c-0.469-0.608-1.211-0.914-2.229-0.914c-0.076,0-0.25,0.017-0.517,0.048c-0.267,0.03-0.444,0.047-0.539,0.047
			C381.203,26.569,382.031,27.819,382.031,29.6z M388.172,26.293c0.422,0,0.844,0.143,1.266,0.422
			c0.972,0.768,1.781,1.148,2.439,1.148c0.811,0,1.406-0.523,1.781-1.57c-0.439,0.221-0.758,0.328-0.961,0.328
			c-0.471,0-0.939-0.156-1.406-0.469c-0.594-0.484-1.086-0.727-1.479-0.727C389.438,25.427,388.891,25.716,388.172,26.293z"/>
	</g>
</g>
<g id="Layer_2">
	<path d="M84.642,22.217c-0.145,0.188-0.164,0.504-0.465,0.504c-0.311,0-0.525-0.371-0.666-0.588
		c-0.099-0.199-0.188-0.493-0.166-0.723c-0.018-0.031-0.029-0.066-0.054-0.084c0-0.093-0.022-0.271-0.116-0.345
		c-0.015-0.104-0.078-0.246-0.086-0.341c-0.021-0.111-0.061-0.205-0.113-0.294c-0.061-0.238-0.846-1.291-0.524-1.47
		c-0.011-0.002-0.021-0.002-0.033,0c0.013-0.104-0.028-0.188-0.116-0.25c0.027-0.03,0.057-0.076,0.01-0.086
		c0-0.014,0.002-0.033,0.008-0.043c-0.078-0.055-0.174-0.377-0.194-0.377c-0.038-0.033-0.069-0.156-0.081-0.195
		c0-0.034-0.04-0.116-0.06-0.154c-0.017-0.008-0.024-0.036-0.013-0.049c-0.105-0.039-0.17-0.364-0.18-0.43
		c0-0.164-0.07-0.392-0.094-0.555l0.023,0.002c0.002-0.021,0.013-0.052,0.01-0.072c-0.02-0.01-0.026-0.047,0.004-0.06
		c-0.025-0.015-0.055-0.034-0.023-0.075c-0.014-0.002-0.027-0.003-0.042-0.005c0.031-0.053,0.032-0.141,0.019-0.187
		c0.005-0.107-0.033-0.25-0.088-0.318c0.009-0.018,0.031-0.05,0.033-0.066c-0.021-0.013-0.041-0.043-0.043-0.061
		c0.018-0.05,0.023-0.116,0.021-0.188c-0.044-0.088-0.005-0.158-0.005-0.227c-0.01-0.029-0.09-0.316-0.041-0.374
		c-0.062-0.01,0.011-0.089-0.024-0.12c0.002-0.041,0.007-0.083,0.029-0.121c-0.023-0.025-0.033-0.084,0.013-0.084
		c-0.005-0.008,0.164-0.459,0.184-0.464c-0.031-0.006-0.053-0.054-0.061-0.083c0.01-0.002,0.076-0.015,0.076-0.023
		c-0.061,0-0.084-0.01-0.082-0.078c-0.012,0-0.021-0.002-0.031-0.004c0.001-0.016,0.008-0.028,0.018-0.041
		c-0.082,0-0.012-0.116-0.01-0.166c0.004-0.029,0.024-0.062,0.051-0.088c-0.023,0.004-0.047,0.006-0.07,0.004
		c0.002-0.027-0.01-0.049-0.035-0.062c0.016-0.004,0.029-0.008,0.044-0.01c-0.056,0-0.042-0.139-0.017-0.164
		c0.007-0.02,0.011-0.098-0.023-0.139c0.023-0.027,0.035-0.084,0.066-0.104c-0.024-0.024-0.041-0.024-0.051-0.001
		c0.047,0-0.006,0.087-0.096,0.042c-0.003,0.013-0.008,0.024-0.015,0.035c0.022,0.001,0.044-0.001,0.067-0.006
		c-0.078,0.188-0.117,0.426-0.23,0.606c-0.081,0.043-0.215,0.104-0.312,0.096c-0.017,0.027-0.037,0.048-0.062,0.062
		c-0.236,0.104-0.574,0.123-0.782-0.127c-0.186-0.131-0.32-0.324-0.456-0.502c-0.099-0.129-0.312-0.328-0.211-0.507
		c0.103,0.009,0.11,0.101,0.237,0.099c0.1,0,0.217-0.041,0.305-0.086c-0.016-0.004-0.031-0.007-0.046-0.01
		c0.202,0.052,0.295-0.191,0.401-0.312c-0.125,0.1-0.31,0.105-0.461,0.112c-0.188,0.009-0.367-0.073-0.51-0.19
		c-0.168-0.135-0.179-0.41-0.347-0.517c0.06-0.091,0.144-0.187,0.241-0.235c0.056-0.028,0.174-0.022,0.203-0.086
		c0.035-0.078,1.312,0.08,1.38,0.043c-0.091,0.008-0.052-0.039-0.046-0.105c0.017-0.193-0.135-0.68-0.381-0.766
		c-0.271-0.094,0.063-0.449-0.078-0.553c-0.248-0.18-0.541-0.263-0.092-0.588c0.03-0.021,0.518-0.615,0.502-0.251
		c-0.006,0.19,0.401,0.091,0.486,0.07c0.27-0.063,0.494-0.375,0.688-0.558c0.246-0.229,0.486-0.463,0.687-0.732
		c0.078-0.105,0.083-0.23,0.158-0.335c0.071-0.101,0.194-0.147,0.28-0.231c0.113-0.109,0.066-0.271,0.105-0.406
		c0.057-0.197,0.223-0.2,0.334-0.342c0.078-0.101-0.003-0.082,0.003-0.168c0.003-0.047-0.011-0.043-0.038-0.043
		c0,0.01-0.184-0.002-0.188-0.002c-0.026-0.066-0.03-0.121-0.017-0.188c-0.039-0.003-0.08-0.019-0.119-0.022
		c-0.086-0.068-0.224-0.135-0.359-0.17c0.01-0.048-0.021-0.064-0.072-0.059c0.004-0.021,0.01-0.045,0.01-0.066
		c0.014-0.332-0.181-1.06,0.277-1.06c0-0.032,0.105-0.1,0.082-0.16c-0.049-0.129-0.121-0.061-0.148-0.26
		c-0.174-0.103-0.355-0.168-0.5-0.25c-0.023,0.004-0.039,0.027-0.065,0.023c-0.054-0.004-0.082-0.186-0.071-0.224
		c0.019-0.074,0.092-0.114,0.152-0.15c0.111-0.065,0.527-0.059,0.525-0.231c0,0.043,0.363-0.106,0.379-0.107
		c0.148-0.016,0.293,0.081,0.422,0.141c0.338,0.158,0.691,0.375,0.951,0.647"/>
	<g>
		<path fill="#FFFFFF" d="M88.252,16.63c-0.062,0.062-0.71,0.729-0.717,0.646c-0.029-0.015-0.067-0.032-0.102-0.034
			c0,0.01-0.258,0.272-0.246,0.344c-0.033-0.002-0.064,0.006-0.071,0.027c-0.517-0.34-0.445,0.518-0.543,0.901
			c0.008,0.062,0.084,0.534,0.03,0.507c0.076,0.195-0.115,0.646-0.158,0.839c-0.043,0.188-0.094,0.379-0.127,0.571
			c-0.053,0.308-0.182,0.611-0.289,0.902c-0.063,0.168-0.076,0.223-0.246,0.289c-0.2,0.08-0.42,0.115-0.557,0.299
			c-0.14,0.184-0.158,0.488-0.451,0.488c-0.301,0-0.51-0.359-0.646-0.57c-0.096-0.194-0.182-0.479-0.16-0.702
			c-0.017-0.031-0.029-0.063-0.053-0.081c0-0.09-0.021-0.264-0.113-0.335c-0.014-0.103-0.076-0.238-0.083-0.332
			c-0.021-0.108-0.059-0.199-0.11-0.285c-0.059-0.231-0.819-1.253-0.508-1.427c-0.012-0.002-0.021-0.002-0.033,0
			c0.013-0.1-0.026-0.184-0.112-0.243c0.026-0.029,0.055-0.074,0.009-0.083c0-0.014,0.003-0.033,0.008-0.042
			c-0.076-0.054-0.169-0.367-0.188-0.366c-0.037-0.033-0.067-0.152-0.079-0.189c0-0.033-0.039-0.112-0.058-0.15
			c-0.016-0.008-0.023-0.035-0.012-0.047c-0.104-0.039-0.167-0.354-0.175-0.418c0-0.159-0.067-0.379-0.091-0.538l0.023,0.002
			c0-0.021,0.012-0.052,0.008-0.069c-0.019-0.011-0.025-0.046,0.004-0.06c-0.024-0.015-0.053-0.032-0.023-0.073
			c-0.014-0.001-0.025-0.003-0.04-0.004c0.029-0.053,0.031-0.137,0.019-0.18c0.004-0.105-0.032-0.244-0.086-0.312
			c0.009-0.016,0.029-0.047,0.031-0.063c-0.02-0.014-0.039-0.043-0.041-0.059c0.016-0.049,0.022-0.111,0.019-0.181
			c-0.042-0.086-0.005-0.153-0.005-0.22c-0.008-0.03-0.088-0.309-0.038-0.362c-0.062-0.011,0.009-0.087-0.024-0.117
			c0.002-0.04,0.006-0.081,0.029-0.116c-0.021-0.027-0.032-0.084,0.012-0.084c-0.004-0.008,0.16-0.443,0.18-0.449
			c-0.031-0.006-0.052-0.053-0.06-0.082c0.011-0.002,0.074-0.014,0.074-0.022c-0.058,0-0.081-0.011-0.079-0.077
			c-0.01,0-0.021-0.001-0.03-0.003c0.001-0.015,0.009-0.028,0.019-0.04c-0.08,0-0.012-0.113-0.01-0.162
			c0.002-0.029,0.022-0.062,0.047-0.087c-0.022,0.005-0.045,0.007-0.068,0.005c0.003-0.027-0.01-0.047-0.034-0.061
			c0.015-0.003,0.028-0.008,0.043-0.01c-0.055,0-0.041-0.135-0.017-0.158c0.008-0.02,0.011-0.096-0.022-0.135
			c0.022-0.026,0.034-0.082,0.066-0.102c-0.025-0.023-0.042-0.023-0.05-0.001c0.043,0-0.006,0.084-0.094,0.041
			c-0.004,0.013-0.008,0.024-0.016,0.035c0.021,0.001,0.043-0.001,0.064-0.006c-0.074,0.183-0.111,0.413-0.224,0.589
			c-0.078,0.041-0.208,0.1-0.302,0.092c-0.016,0.026-0.037,0.047-0.061,0.061c-0.229,0.101-0.556,0.121-0.76-0.123
			c-0.18-0.127-0.311-0.312-0.441-0.485c-0.096-0.125-0.303-0.317-0.205-0.493c0.099,0.01,0.106,0.098,0.229,0.098
			c0.097,0,0.211-0.041,0.296-0.084c-0.016-0.004-0.029-0.006-0.044-0.01c0.195,0.049,0.285-0.188,0.39-0.303
			c-0.121,0.096-0.301,0.102-0.448,0.107c-0.183,0.009-0.356-0.071-0.495-0.185c-0.162-0.131-0.172-0.397-0.336-0.501
			c0.059-0.088,0.139-0.181,0.234-0.229c0.054-0.028,0.168-0.022,0.196-0.084c0.034-0.076,1.274,0.078,1.339,0.043
			c-0.086,0.009-0.05-0.037-0.045-0.104c0.016-0.188-0.131-0.66-0.369-0.742c-0.264-0.092,0.062-0.437-0.076-0.537
			c-0.239-0.174-0.524-0.256-0.088-0.57c0.029-0.021,0.5-0.598,0.487-0.243c-0.006,0.185,0.39,0.086,0.472,0.067
			c0.262-0.062,0.479-0.365,0.668-0.541c0.237-0.223,0.473-0.45,0.666-0.713c0.076-0.101,0.082-0.224,0.154-0.324
			c0.07-0.098,0.188-0.143,0.271-0.225c0.109-0.107,0.066-0.265,0.104-0.396c0.057-0.191,0.217-0.194,0.324-0.332
			c0.076-0.098-0.001-0.079,0.004-0.163c0.003-0.045-0.011-0.041-0.039-0.041c0,0.009-0.177-0.002-0.184-0.002
			c-0.024-0.063-0.027-0.117-0.016-0.185c-0.037-0.002-0.076-0.018-0.115-0.02c-0.084-0.068-0.217-0.132-0.349-0.166
			c0.009-0.047-0.022-0.062-0.069-0.057c0.002-0.021,0.009-0.043,0.01-0.064c0.013-0.322-0.176-1.027,0.27-1.027
			c0-0.033,0.104-0.098,0.079-0.156c-0.047-0.127-0.116-0.059-0.146-0.252c-0.168-0.1-0.344-0.164-0.484-0.243
			c-0.021,0.005-0.037,0.026-0.062,0.022c-0.053-0.004-0.08-0.18-0.069-0.217c0.019-0.072,0.09-0.111,0.147-0.146
			c0.109-0.062,0.514-0.057,0.512-0.225c0,0.041,0.352-0.104,0.367-0.105c0.145-0.014,0.285,0.08,0.41,0.138
			c0.328,0.153,0.672,0.364,0.922,0.629c0.049,0.052,0.201,0.19,0.131,0.279c0.156,0.155,0.889-0.292,1.054-0.243
			c0.536,0.167,0.704,0.824,0.085,0.938c0.044,0.078-0.027,0.209-0.051,0.267c-0.059-0.009-0.219-0.043-0.266-0.007
			c0.047,0.109,0.127,0.232-0.012,0.244c0.045,0.226,0.25,0.322,0.325,0.588c-0.038,0.029-0.155,0.115-0.185,0.076
			c-0.136,0.115-0.324,0.189-0.293-0.07c-0.033,0.039-0.1,0.061-0.15,0.08c0.045-0.018,0.156,0.695,0.188,0.756
			c0.021-0.03,0.06-0.053,0.078-0.088c-0.02,0.039,0.235,0.351,0.297,0.342c0.133-0.018,0.252,0.039,0.35,0.148
			c0.082,0.106,0.293,0.17,0.395,0.312c0.084,0.119-0.238,0.221-0.275,0.316c-0.08,0.209-0.205,0.488-0.065,0.699
			c0.235-0.086,0.647,0.293,0.833,0.418c0.122,0.082,0.242,0.205,0.373,0.269c0.064,0.03,0.124,0.032,0.193,0.058
			c0.188,0.067,0.178-0.013,0.358-0.05"/>
	</g>
	<path d="M85.596,22.412c-0.302,0-0.51-0.361-0.646-0.57c-0.097-0.195-0.183-0.48-0.16-0.703c-0.017-0.031-0.028-0.064-0.054-0.081
		c0-0.091-0.022-0.263-0.113-0.335c-0.014-0.102-0.075-0.238-0.083-0.332c-0.021-0.107-0.06-0.199-0.11-0.285
		c-0.059-0.23-0.82-1.253-0.509-1.426c-0.011-0.002-0.021-0.002-0.032,0c0.012-0.1-0.027-0.184-0.113-0.244
		c0.027-0.029,0.057-0.074,0.011-0.083c0-0.015,0.003-0.033,0.007-0.042c-0.076-0.053-0.169-0.367-0.188-0.366
		c-0.037-0.032-0.067-0.151-0.08-0.188c0-0.034-0.039-0.113-0.057-0.151c-0.016-0.008-0.023-0.035-0.011-0.047
		c-0.104-0.039-0.167-0.354-0.175-0.418c0-0.159-0.068-0.38-0.092-0.538l0.023,0.002c0.001-0.02,0.012-0.051,0.01-0.07
		c-0.02-0.01-0.026-0.045,0.002-0.059c-0.022-0.014-0.053-0.032-0.021-0.073c-0.014-0.001-0.027-0.003-0.04-0.004
		c0.028-0.052,0.03-0.136,0.019-0.181c0.004-0.104-0.033-0.243-0.086-0.311c0.008-0.016,0.029-0.047,0.031-0.064
		c-0.02-0.012-0.039-0.041-0.042-0.057c0.017-0.05,0.022-0.113,0.021-0.182c-0.043-0.086-0.006-0.154-0.006-0.221
		c-0.009-0.029-0.088-0.307-0.039-0.361c-0.061-0.01,0.011-0.087-0.023-0.117c0.002-0.04,0.006-0.08,0.027-0.117
		c-0.021-0.025-0.031-0.082,0.014-0.082c-0.005-0.009,0.16-0.445,0.179-0.451c-0.032-0.004-0.052-0.051-0.059-0.08
		c0.009-0.002,0.073-0.016,0.073-0.023c-0.059,0-0.082-0.011-0.08-0.076c-0.01,0-0.021-0.002-0.029-0.004
		c0.002-0.015,0.008-0.027,0.018-0.04c-0.078,0-0.011-0.112-0.01-0.163c0.003-0.027,0.023-0.061,0.049-0.086
		c-0.022,0.006-0.046,0.008-0.068,0.004c0.002-0.025-0.01-0.046-0.033-0.06c0.014-0.003,0.027-0.007,0.042-0.009
		c-0.054,0-0.041-0.135-0.017-0.159c0.008-0.019,0.011-0.095-0.022-0.136c0.022-0.025,0.035-0.082,0.067-0.101
		c-0.026-0.022-0.043-0.022-0.051-0.001c0.045,0-0.007,0.084-0.095,0.041c-0.003,0.012-0.007,0.023-0.015,0.035
		c0.021,0.001,0.043-0.001,0.064-0.006c-0.074,0.184-0.111,0.412-0.224,0.589c-0.078,0.041-0.208,0.101-0.304,0.092
		c-0.016,0.026-0.037,0.046-0.059,0.062c-0.229,0.1-0.557,0.119-0.76-0.123c-0.18-0.127-0.311-0.313-0.441-0.486
		c-0.097-0.125-0.303-0.318-0.205-0.493c0.099,0.009,0.107,0.097,0.229,0.097c0.097,0,0.211-0.039,0.296-0.084
		c-0.016-0.002-0.029-0.006-0.044-0.01c0.196,0.051,0.286-0.187,0.39-0.302c-0.121,0.097-0.301,0.101-0.449,0.108
		c-0.182,0.008-0.354-0.072-0.494-0.186c-0.163-0.131-0.174-0.396-0.336-0.501c0.058-0.088,0.138-0.181,0.232-0.229
		c0.055-0.027,0.17-0.021,0.198-0.084c0.035-0.075,1.274,0.08,1.339,0.043c-0.087,0.01-0.049-0.036-0.044-0.103
		c0.015-0.188-0.131-0.659-0.371-0.741c-0.262-0.093,0.062-0.438-0.075-0.539c-0.24-0.174-0.525-0.254-0.088-0.569
		c0.029-0.021,0.501-0.597,0.487-0.243c-0.007,0.184,0.39,0.086,0.472,0.066c0.262-0.062,0.48-0.364,0.668-0.541
		c0.238-0.223,0.473-0.449,0.667-0.711c0.076-0.102,0.08-0.225,0.153-0.326c0.07-0.098,0.188-0.143,0.271-0.225
		c0.109-0.107,0.065-0.264,0.104-0.396c0.056-0.19,0.216-0.194,0.324-0.332c0.076-0.097-0.002-0.079,0.004-0.163
		c0.003-0.045-0.012-0.041-0.038-0.041c0,0.009-0.177-0.002-0.183-0.002C84.79,6.953,84.787,6.9,84.799,6.833
		c-0.039-0.004-0.078-0.019-0.115-0.021c-0.084-0.067-0.218-0.132-0.35-0.166c0.009-0.047-0.021-0.063-0.07-0.058
		c0.004-0.021,0.01-0.043,0.012-0.063c0.012-0.323-0.176-1.028,0.269-1.028c0-0.031,0.103-0.097,0.08-0.156
		c-0.047-0.125-0.118-0.059-0.146-0.25c-0.166-0.1-0.345-0.166-0.484-0.244c-0.021,0.005-0.037,0.025-0.062,0.023
		c-0.053-0.006-0.08-0.181-0.07-0.218c0.02-0.071,0.092-0.112,0.149-0.146c0.109-0.063,0.513-0.057,0.511-0.225
		c0,0.041,0.353-0.104,0.367-0.105c0.145-0.016,0.285,0.078,0.41,0.137c0.328,0.152,0.672,0.364,0.923,0.629
		c0.05,0.051,0.202,0.191,0.132,0.279c0.155,0.156,0.889-0.292,1.053-0.243c0.537,0.167,0.705,0.824,0.086,0.938
		c0.044,0.076-0.028,0.207-0.051,0.266c-0.058-0.01-0.22-0.043-0.266-0.008c0.046,0.111,0.127,0.232-0.012,0.244
		c0.046,0.227,0.25,0.322,0.324,0.588c-0.037,0.029-0.154,0.117-0.183,0.078c-0.136,0.115-0.325,0.188-0.293-0.071
		c-0.034,0.039-0.1,0.062-0.151,0.08c0.047-0.019,0.158,0.696,0.189,0.756c0.02-0.03,0.059-0.054,0.077-0.088
		c-0.021,0.038,0.235,0.351,0.297,0.342c0.132-0.019,0.252,0.039,0.349,0.147c0.084,0.107,0.293,0.17,0.396,0.313
		c0.084,0.119-0.239,0.22-0.276,0.315c-0.08,0.211-0.203,0.49-0.064,0.701c0.234-0.088,0.648,0.291,0.833,0.416
		c0.12,0.082,0.241,0.207,0.372,0.27c0.065,0.031,0.125,0.031,0.195,0.057c0.187,0.068,0.178-0.012,0.358-0.049
		c0.142-0.029,0.269,0.04,0.385,0.111c0.212,0.13,0.507,0.464,0.784,0.333c0.04,0.305,0.312,0.036,0.54,0.263
		c0.104-0.199,0.228,0.012,0.33,0.029c0.123,0.021,0.26-0.146,0.364-0.021c0.16-0.296-0.049-0.599,0.078-0.904
		c0.074-0.178,0.338-0.273,0.414-0.047c0.074,0.221-0.086,0.49,0.157,0.647c0.194,0.124,0.483,0.049,0.698,0.042
		c0.251-0.009,0.708,0.064,0.908-0.126c0.228-0.218-0.221-0.265-0.198-0.425c0.011-0.071,0.202-0.127,0.253-0.154
		c0.12-0.064,0.227-0.143,0.33-0.232c0.211-0.181,0.413-0.379,0.633-0.551c0.271-0.209,0.543-0.102,0.84-0.201
		c0.228-0.078,0.373-0.261,0.387,0.102c0.197-0.128,0.119,0.249,0.107,0.329c0.229,0.008,0.53,0.073,0.536,0.36
		c0.006,0.28-0.3,0.321-0.504,0.391c-0.623,0.207-0.69,1.143-0.875,1.676c-0.116,0.338-0.263,0.477-0.619,0.373
		c0.06,0.189,0.247,0.707-0.087,0.743c0.072,0.116,0.087,0.286,0.045,0.416c-0.055,0.168-0.145,0.142-0.295,0.112
		c-0.264-0.25-0.117-0.687-0.285-0.977c-0.053,0.042-0.122,0.062-0.188,0.045c-0.01,0.105,0.018,0.297-0.055,0.383
		c-0.104,0.125-0.177-0.002-0.207-0.115c0.004,0.051-0.014,0.078-0.037,0.117c-0.174-0.152-0.098-0.59,0.106-0.689
		c0.072-0.035,0.101-0.026,0.168-0.078c0.019-0.014,0.097-0.07,0.109-0.086c0.062-0.081,0.062-0.199,0.081-0.295
		c0.041,0.011,0.082,0.014,0.123,0.021c-0.166-0.214-0.529-0.184-0.775-0.182c-0.218,0.001-0.677,0.122-0.768-0.167
		c-0.032-0.104,0.002-0.271-0.071-0.356c-0.108-0.125-0.31-0.058-0.44-0.148c0.018,0.02,0.022,0.048,0.036,0.066
		c-0.061,0-0.116,0.027-0.145,0.084c0.047-0.094-0.121-0.125-0.175-0.106c-0.11,0.037-0.157,0.196-0.154,0.301
		c0-0.017,0.229,0.091,0.247,0.104c0.085,0.062,0.155,0.146,0.233,0.215c-0.121,0.082-0.318,0.068-0.332,0.262
		c-0.033-0.018-0.08-0.021-0.114-0.033c-0.048-0.017,0.032,0.2,0.048,0.219c0.062,0.068,0.169,0.101,0.247,0.148
		c0.038,0.023,0.001,0.568,0.046,0.676c-0.02-0.046,0.124-0.009,0.145,0.026c0.033,0.06-0.029,0.188-0.027,0.253
		c0.001,0.125,0.027,0.246,0.08,0.359c-0.133-0.033-0.133,0.05-0.195,0.129c-0.075,0.097-0.146,0.119-0.27,0.142
		c-0.008-0.042-0.02-0.085-0.031-0.126c-0.155,0.01-0.272,0.336-0.364,0.331c-0.489-0.024-0.202,0.237-0.295,0.457
		c0.015-0.003,0.034,0,0.05,0.004c0.021-0.03-0.209,0.218-0.21,0.222c0.069-0.006-0.774,0.502-0.866,0.568
		c-0.232,0.167-0.359,0.441-0.556,0.635c-0.267,0.032-0.612,0.557-0.88,0.678c-0.064,0.062-0.71,0.729-0.717,0.646
		c-0.029-0.015-0.067-0.032-0.103-0.034c0.001,0.01-0.256,0.271-0.246,0.344c-0.032-0.002-0.063,0.006-0.071,0.027
		c-0.517-0.34-0.443,0.518-0.541,0.9c0.006,0.062,0.082,0.535,0.029,0.508c0.076,0.195-0.115,0.646-0.158,0.839
		c-0.043,0.188-0.094,0.379-0.127,0.571c-0.054,0.308-0.181,0.611-0.289,0.902c-0.062,0.168-0.076,0.223-0.246,0.289
		c-0.199,0.08-0.42,0.115-0.558,0.299C85.908,22.105,85.889,22.412,85.596,22.412z"/>
</g>
</svg>
